<svg width="158" height="108" viewBox="0 0 158 108" fill="none" xmlns="http://www.w3.org/2000/svg">
<path d="M81.5985 8.37509L81.6447 8.46739L81.5985 8.37509ZM80.9038 6.98555L80.9176 7.01323L80.9038 6.98555Z" fill="black" stroke="black" stroke-width="33"/>
<mask id="path-2-inside-1_44_3383" fill="white">
<path d="M49.9341 12.5708C48.9127 12.9833 48.4019 13.8083 47.5966 16.2244L47.0662 17.8351L44.8466 17.9136C42.3716 18.0119 41.6252 18.2869 40.8591 19.4261C40.2109 20.3886 40.1127 21.2726 40.5055 22.3333C40.8002 23.0797 41.1341 23.4333 42.5877 24.5136C43.5698 25.2208 44.3359 25.9279 44.3359 26.1244C44.3359 26.3012 44.0609 27.2244 43.7466 28.2065C42.9805 30.4065 43.0591 31.2904 44.0805 32.4297C44.9448 33.3922 46.0252 33.7262 47.1644 33.3922C47.6162 33.2547 48.6966 32.6262 49.5805 31.9779L51.2109 30.7994L52.8412 31.9779C53.7252 32.6262 54.8055 33.2547 55.2573 33.3922C56.3966 33.7262 57.4769 33.3922 58.3412 32.4297C59.3627 31.2904 59.4412 30.4065 58.6752 28.2065C58.3609 27.2244 58.0859 26.3012 58.0859 26.1244C58.0859 25.9476 58.8519 25.2601 59.7752 24.5726C61.1109 23.5904 61.543 23.1583 61.8573 22.4511C62.5055 20.9779 62.1323 19.6029 60.8162 18.6011C60.1091 18.0904 59.0484 17.894 57.0644 17.8744H55.3752L54.8448 16.244C54.1377 14.0833 53.5287 13.0815 52.7037 12.6886C51.9966 12.3547 50.5823 12.2958 49.9341 12.5708ZM53.3716 20.8011C53.7055 21.0369 54.5109 21.1351 56.3769 21.2136L58.9109 21.3119L56.8287 22.8244C55.3555 23.9047 54.7269 24.494 54.6287 24.8672C54.5305 25.2208 54.7269 26.1637 55.218 27.7547C55.6109 29.0512 55.8859 30.1512 55.8466 30.1904C55.8269 30.2297 55.5716 30.0922 55.3162 29.8762C53.3519 28.344 51.7019 27.3029 51.2109 27.3029C50.8573 27.3029 49.9537 27.794 48.5787 28.7565C47.4394 29.5619 46.4966 30.1315 46.4966 29.994C46.4966 29.8762 46.8109 28.7958 47.2234 27.5976C47.7144 26.1047 47.8912 25.2404 47.793 24.8869C47.7144 24.5333 47.0073 23.8654 45.5734 22.7458L43.4519 21.1154L46.2412 21.0172C48.3823 20.9386 49.1091 20.8404 49.3055 20.6244C49.4627 20.4672 49.8555 19.5244 50.1894 18.5619C51.3287 15.2226 51.1323 15.2815 52.0752 18.0511C52.6841 19.8583 53.018 20.5654 53.3716 20.8011Z"/>
</mask>
<path d="M49.9341 12.5708C48.9127 12.9833 48.4019 13.8083 47.5966 16.2244L47.0662 17.8351L44.8466 17.9136C42.3716 18.0119 41.6252 18.2869 40.8591 19.4261C40.2109 20.3886 40.1127 21.2726 40.5055 22.3333C40.8002 23.0797 41.1341 23.4333 42.5877 24.5136C43.5698 25.2208 44.3359 25.9279 44.3359 26.1244C44.3359 26.3012 44.0609 27.2244 43.7466 28.2065C42.9805 30.4065 43.0591 31.2904 44.0805 32.4297C44.9448 33.3922 46.0252 33.7262 47.1644 33.3922C47.6162 33.2547 48.6966 32.6262 49.5805 31.9779L51.2109 30.7994L52.8412 31.9779C53.7252 32.6262 54.8055 33.2547 55.2573 33.3922C56.3966 33.7262 57.4769 33.3922 58.3412 32.4297C59.3627 31.2904 59.4412 30.4065 58.6752 28.2065C58.3609 27.2244 58.0859 26.3012 58.0859 26.1244C58.0859 25.9476 58.8519 25.2601 59.7752 24.5726C61.1109 23.5904 61.543 23.1583 61.8573 22.4511C62.5055 20.9779 62.1323 19.6029 60.8162 18.6011C60.1091 18.0904 59.0484 17.894 57.0644 17.8744H55.3752L54.8448 16.244C54.1377 14.0833 53.5287 13.0815 52.7037 12.6886C51.9966 12.3547 50.5823 12.2958 49.9341 12.5708ZM53.3716 20.8011C53.7055 21.0369 54.5109 21.1351 56.3769 21.2136L58.9109 21.3119L56.8287 22.8244C55.3555 23.9047 54.7269 24.494 54.6287 24.8672C54.5305 25.2208 54.7269 26.1637 55.218 27.7547C55.6109 29.0512 55.8859 30.1512 55.8466 30.1904C55.8269 30.2297 55.5716 30.0922 55.3162 29.8762C53.3519 28.344 51.7019 27.3029 51.2109 27.3029C50.8573 27.3029 49.9537 27.794 48.5787 28.7565C47.4394 29.5619 46.4966 30.1315 46.4966 29.994C46.4966 29.8762 46.8109 28.7958 47.2234 27.5976C47.7144 26.1047 47.8912 25.2404 47.793 24.8869C47.7144 24.5333 47.0073 23.8654 45.5734 22.7458L43.4519 21.1154L46.2412 21.0172C48.3823 20.9386 49.1091 20.8404 49.3055 20.6244C49.4627 20.4672 49.8555 19.5244 50.1894 18.5619C51.3287 15.2226 51.1323 15.2815 52.0752 18.0511C52.6841 19.8583 53.018 20.5654 53.3716 20.8011Z" fill="black"/>
<path d="M49.9341 12.5708L62.8222 42.95L62.5578 43.0622L62.2914 43.1698L49.9341 12.5708ZM47.5966 16.2244L16.252 5.90359L16.2709 5.84619L16.29 5.78885L47.5966 16.2244ZM47.0662 17.8351L78.4108 28.1558L71.2179 50.0008L48.2336 50.8144L47.0662 17.8351ZM44.8466 17.9136L43.5381 -15.0604L43.6086 -15.0632L43.6792 -15.0657L44.8466 17.9136ZM40.8591 19.4261L68.2439 37.8401L68.2372 37.85L68.2305 37.86L40.8591 19.4261ZM40.5055 22.3333L9.81039 34.4498L9.68161 34.1236L9.5598 33.7947L40.5055 22.3333ZM42.5877 24.5136L23.3056 51.2943L23.1029 51.1483L22.9024 50.9993L42.5877 24.5136ZM43.7466 28.2065L75.1766 38.2641L75.0489 38.663L74.9112 39.0585L43.7466 28.2065ZM44.0805 32.4297L19.5269 54.4779L19.5183 54.4683L19.5097 54.4587L44.0805 32.4297ZM47.1644 33.3922L56.7728 64.9625L56.6098 65.0121L56.4464 65.06L47.1644 33.3922ZM49.5805 31.9779L30.0655 5.36657L30.1563 5.29999L30.2476 5.23403L49.5805 31.9779ZM51.2109 30.7994L31.8779 4.05545L51.2109 -9.92018L70.5438 4.05545L51.2109 30.7994ZM52.8412 31.9779L72.1742 5.23402L72.2654 5.29999L72.3562 5.36657L52.8412 31.9779ZM55.2573 33.3922L45.9754 65.06L45.8119 65.0121L45.649 64.9625L55.2573 33.3922ZM58.3412 32.4297L82.912 54.4587L82.9034 54.4683L82.8948 54.4779L58.3412 32.4297ZM58.6752 28.2065L27.5105 39.0585L27.3728 38.663L27.2452 38.2641L58.6752 28.2065ZM59.7752 24.5726L40.0654 -1.89484L40.1456 -1.95462L40.2263 -2.0139L59.7752 24.5726ZM61.8573 22.4511L92.0627 35.7415L92.038 35.7977L92.0131 35.8537L61.8573 22.4511ZM60.8162 18.6011L80.1374 -8.15126L80.4737 -7.90837L80.8038 -7.65709L60.8162 18.6011ZM57.0644 17.8744V-15.1256H57.2278L57.3912 -15.124L57.0644 17.8744ZM55.3752 17.8744V50.8744H31.4079L23.9938 28.0828L55.3752 17.8744ZM54.8448 16.244L86.2079 5.97972L86.217 6.00766L86.2261 6.03562L54.8448 16.244ZM52.7037 12.6886L66.7949 -17.1516L66.8433 -17.1287L66.8915 -17.1057L52.7037 12.6886ZM53.3716 20.8011L71.6767 -6.65651L72.0427 -6.41248L72.4021 -6.15879L53.3716 20.8011ZM56.3769 21.2136L55.0988 54.1889L55.0438 54.1868L54.9887 54.1844L56.3769 21.2136ZM58.9109 21.3119L60.189 -11.6634L155.376 -7.97396L78.3056 48.011L58.9109 21.3119ZM56.8287 22.8244L37.3137 -3.787L37.3738 -3.83104L37.434 -3.87481L56.8287 22.8244ZM54.6287 24.8672L86.5422 33.2655L86.485 33.4829L86.4248 33.6995L54.6287 24.8672ZM55.218 27.7547L86.7503 18.0225L86.7753 18.1034L86.7998 18.1845L55.218 27.7547ZM55.8466 30.1904L26.3305 15.4324L28.7254 10.6426L32.5121 6.85592L55.8466 30.1904ZM55.3162 29.8762L75.6123 3.85558L76.1306 4.25983L76.6323 4.6844L55.3162 29.8762ZM48.5787 28.7565L29.5299 1.80945L29.5921 1.76551L29.6545 1.72186L48.5787 28.7565ZM47.2234 27.5976L78.5709 37.9093L78.5 38.1249L78.4261 38.3395L47.2234 27.5976ZM47.793 24.8869L15.9969 33.7191L15.766 32.8878L15.5788 32.0456L47.793 24.8869ZM45.5734 22.7458L65.6821 -3.4198L65.7827 -3.34249L65.8827 -3.26441L45.5734 22.7458ZM43.4519 21.1154L23.3432 47.281L-49.4151 -8.63505L42.2907 -11.8641L43.4519 21.1154ZM46.2412 21.0172L47.4514 53.995L47.4269 53.9959L47.4025 53.9968L46.2412 21.0172ZM49.3055 20.6244L24.8875 -1.57384L25.4157 -2.15489L25.971 -2.71016L49.3055 20.6244ZM50.1894 18.5619L81.4217 29.2176L81.3943 29.298L81.3664 29.3784L50.1894 18.5619ZM52.0752 18.0511L83.3146 7.41644L83.3311 7.46505L83.3475 7.51371L52.0752 18.0511ZM62.2914 43.1698C64.8261 42.1461 67.7477 40.559 70.5961 38.1432C73.3832 35.7795 75.2853 33.3127 76.5302 31.3552C78.5401 28.1948 79.2589 25.5924 78.9031 26.6599L16.29 5.78885C16.7055 4.54236 20.9081 -11.2966 37.5768 -18.0282L62.2914 43.1698ZM78.9411 26.5451L78.4108 28.1558L15.7217 7.51431L16.252 5.90359L78.9411 26.5451ZM48.2336 50.8144L46.014 50.893L43.6792 -15.0657L45.8988 -15.1443L48.2336 50.8144ZM46.1551 50.8877C45.9445 50.8961 46.6015 50.8815 47.6531 50.7411C48.7153 50.5993 51.0261 50.2255 53.8692 49.152C57.0053 47.9678 60.1785 46.1667 63.07 43.6607C65.7678 41.3226 67.4328 39.0463 68.2439 37.8401L13.4743 1.01223C16.4633 -3.43305 21.7791 -9.27935 30.5547 -12.593C36.6915 -14.9102 42.4005 -15.0153 43.5381 -15.0604L46.1551 50.8877ZM68.2305 37.86C70.1411 35.0231 72.3648 30.5815 73.06 24.7479C73.7556 18.9108 72.6359 14.0706 71.4512 10.8719L9.5598 33.7947C7.98225 29.5353 6.7152 23.7227 7.52375 16.9379C8.33189 10.1566 10.9289 4.79174 13.4877 0.99234L68.2305 37.86ZM71.2006 10.2168C70.8127 9.23406 70.0737 7.51996 68.8497 5.53243C67.5893 3.48573 66.2329 1.8237 64.9953 0.525768C63.8753 -0.648949 62.9438 -1.42668 62.5945 -1.71261C62.2404 -2.00244 62.0525 -2.13584 62.2729 -1.972L22.9024 50.9993C22.3291 50.5733 19.7247 48.6886 17.2286 46.0707C13.4932 42.153 11.2318 38.0507 9.81039 34.4498L71.2006 10.2168ZM61.8697 -2.26698C63.1675 -1.33256 64.688 -0.144165 66.1976 1.24749C66.8701 1.86746 68.1806 3.11146 69.5886 4.80702C70.2553 5.6099 71.5572 7.24186 72.8639 9.50013C73.5363 10.6622 77.3359 17.0276 77.3359 26.1244H11.3359C11.3359 31.2093 12.5147 35.1545 13.302 37.3266C14.1456 39.6542 15.093 41.4404 15.7382 42.5554C16.9992 44.7346 18.2335 46.2736 18.813 46.9715C20.0467 48.4571 21.1043 49.4433 21.4626 49.7736C22.3436 50.5858 22.9899 51.067 23.3056 51.2943L61.8697 -2.26698ZM77.3359 26.1244C77.3359 29.3563 76.8335 31.8988 76.7757 32.212C76.6158 33.0783 76.4523 33.776 76.3612 34.1521C76.1718 34.9341 75.9829 35.604 75.8737 35.984C75.6366 36.8083 75.3785 37.6331 75.1766 38.2641L12.3166 18.1489C12.4289 17.7978 12.4655 17.6699 12.4445 17.7429C12.4433 17.7472 12.3428 18.0917 12.2148 18.6203C12.1544 18.8696 12.0148 19.4585 11.8712 20.2366C11.7983 20.6319 11.6878 21.2717 11.588 22.0695C11.5036 22.7441 11.3359 24.2268 11.3359 26.1244H77.3359ZM74.9112 39.0585C74.9555 38.9314 75.3274 37.8754 75.6543 36.2875C75.9934 34.6403 76.4329 31.7331 76.1361 28.0592C75.8168 24.106 74.7291 20.2795 72.9927 16.8144C71.3915 13.6191 69.599 11.4578 68.6513 10.4007L19.5097 54.4587C16.161 50.7236 11.1834 43.6866 10.3503 33.3726C9.70458 25.3774 12.0102 18.9965 12.5819 17.3545L74.9112 39.0585ZM68.6341 10.3816C65.7412 7.15989 61.3445 3.76163 55.3286 1.88873C49.184 -0.0242081 43.0785 0.201515 37.8825 1.72448L56.4464 65.06C41.9034 69.3226 27.9992 63.9129 19.5269 54.4779L68.6341 10.3816ZM37.5561 1.82199C36.139 2.25329 35.0565 2.69204 34.472 2.94005C33.825 3.21456 33.3127 3.45912 32.9723 3.62756C32.3035 3.9585 31.8218 4.23217 31.5628 4.38351C31.0634 4.67531 30.5928 4.97992 30.0655 5.36657L69.0955 58.5893C67.6843 59.6242 66.2316 60.5672 64.8581 61.3697C64.3818 61.6479 61.0591 63.6579 56.7728 64.9625L37.5561 1.82199ZM30.2476 5.23403L31.8779 4.05545L70.5438 57.5433L68.9135 58.7218L30.2476 5.23403ZM70.5438 4.05545L72.1742 5.23402L33.5083 58.7218L31.8779 57.5433L70.5438 4.05545ZM72.3562 5.36657C71.829 4.97992 71.3584 4.67531 70.859 4.38351C70.5999 4.23217 70.1182 3.9585 69.4494 3.62756C69.1091 3.45912 68.5968 3.21456 67.9498 2.94005C67.3653 2.69204 66.2828 2.25329 64.8656 1.82199L45.649 64.9625C41.3626 63.6579 38.0399 61.6479 37.5637 61.3697C36.1901 60.5672 34.7374 59.6242 33.3262 58.5893L72.3562 5.36657ZM64.5392 1.72448C59.3432 0.201515 53.2378 -0.0242081 47.0932 1.88873C41.0772 3.76163 36.6806 7.1599 33.7876 10.3816L82.8948 54.4779C74.4225 63.9129 60.5183 69.3226 45.9754 65.06L64.5392 1.72448ZM33.7704 10.4007C32.8227 11.4578 31.0302 13.6191 29.429 16.8144C27.6927 20.2795 26.6049 24.106 26.2856 28.0592C25.9889 31.7331 26.4284 34.6403 26.7674 36.2875C27.0943 37.8754 27.4662 38.9314 27.5105 39.0585L89.8398 17.3545C90.4116 18.9965 92.7172 25.3774 92.0714 33.3726C91.2383 43.6866 86.2607 50.7236 82.912 54.4587L33.7704 10.4007ZM27.2452 38.2641C27.0432 37.6331 26.7851 36.8083 26.5481 35.984C26.4388 35.604 26.2499 34.9341 26.0605 34.1521C25.9695 33.776 25.8059 33.0783 25.6461 32.212C25.5883 31.8988 25.0859 29.3563 25.0859 26.1244H91.0859C91.0859 24.2268 90.9182 22.7441 90.8338 22.0695C90.734 21.2717 90.6235 20.6319 90.5505 20.2366C90.407 19.4585 90.2673 18.8696 90.207 18.6203C90.079 18.0917 89.9785 17.7472 89.9772 17.7429C89.9563 17.6699 89.9928 17.7978 90.1051 18.1489L27.2452 38.2641ZM25.0859 26.1244C25.0859 16.319 29.5234 9.54206 29.9969 8.77079C31.3181 6.61845 32.6082 5.07316 33.2242 4.35851C34.549 2.82146 35.7656 1.6878 36.3473 1.15731C37.6806 -0.0586662 39.0025 -1.10338 40.0654 -1.89484L79.4849 51.04C79.6245 50.936 80.1019 50.5788 80.8213 49.9227C81.0961 49.6721 82.0634 48.7864 83.2158 47.4495C83.7456 46.8349 84.9685 45.3777 86.2443 43.2995C86.8931 42.2426 87.9048 40.4638 88.8256 38.1109C89.66 35.9784 91.0859 31.7156 91.0859 26.1244H25.0859ZM40.2263 -2.0139C40.7934 -2.43094 39.3699 -1.45584 37.6845 0.255806C36.6558 1.30063 35.4642 2.67212 34.2966 4.38956C33.1198 6.12064 32.2847 7.73643 31.7015 9.04858L92.0131 35.8537C87.8699 45.1758 80.9216 49.9844 79.324 51.1591L40.2263 -2.0139ZM31.6519 9.16078C29.4418 14.1836 28.1235 21.2273 30.2196 28.9714C32.2905 36.622 36.8435 41.826 40.8286 44.8594L80.8038 -7.65709C86.105 -3.6219 91.5027 2.77043 93.9271 11.7273C96.3768 20.7777 94.921 29.2454 92.0627 35.7415L31.6519 9.16078ZM41.495 45.3536C46.1386 48.7073 50.6091 49.9653 53.2019 50.4626C54.4524 50.7025 55.415 50.7942 55.9246 50.8323C56.1971 50.8527 56.4044 50.8624 56.5313 50.8672C56.6589 50.8719 56.7318 50.8727 56.7377 50.8727L57.3912 -15.124C59.1085 -15.107 70.0789 -15.4157 80.1374 -8.15126L41.495 45.3536ZM57.0644 50.8744H55.3752V-15.1256H57.0644V50.8744ZM23.9938 28.0828L23.4634 26.4524L86.2261 6.03562L86.7565 7.66598L23.9938 28.0828ZM23.4817 26.5083C23.4923 26.5408 23.6263 26.9522 23.8966 27.5967C24.1584 28.2208 24.6878 29.4008 25.5643 30.8533C27.3871 33.874 31.3342 39.0632 38.5159 42.483L66.8915 -17.1057C74.8982 -13.293 79.5623 -7.40651 82.0727 -3.24656C84.3426 0.515041 85.5887 4.08766 86.2079 5.97972L23.4817 26.5083ZM38.6125 42.5289C41.6425 43.9597 44.2116 44.5752 45.6235 44.8561C47.2128 45.1724 48.6489 45.3189 49.9037 45.372C51.1453 45.4244 52.6748 45.4051 54.4389 45.1952C55.9199 45.019 59.0693 44.5422 62.8222 42.95L37.0459 -17.8084C44.071 -20.7887 50.398 -20.666 52.6899 -20.5692C55.3544 -20.4566 60.8282 -19.9692 66.7949 -17.1516L38.6125 42.5289ZM72.4021 -6.15879C68.4098 -8.97691 64.7222 -10.2196 62.8363 -10.7617C60.8552 -11.3312 59.3059 -11.5578 58.6832 -11.6412C57.535 -11.7951 56.8857 -11.7942 57.7652 -11.7571L54.9887 54.1844C54.0021 54.1429 52.0171 54.0555 49.9162 53.7739C49.1905 53.6766 41.665 52.9309 34.341 47.7611L72.4021 -6.15879ZM57.655 -11.7616L60.189 -11.6634L57.6328 54.2871L55.0988 54.1889L57.655 -11.7616ZM78.3056 48.011L76.2234 49.5235L37.434 -3.87481L39.5162 -5.38731L78.3056 48.011ZM76.3437 49.4357C75.8632 49.7881 76.5967 49.2901 77.6937 48.2692C78.2571 47.745 79.5477 46.505 80.9729 44.6505C82.2295 43.0153 85.0045 39.1088 86.5422 33.2655L22.7153 16.4689C24.3021 10.439 27.1924 6.31893 28.6406 4.43451C30.2572 2.33075 31.8155 0.805962 32.7325 -0.0472908C34.5367 -1.72618 36.321 -3.059 37.3137 -3.787L76.3437 49.4357ZM86.4248 33.6995C87.256 30.7073 87.4902 28.1958 87.5663 26.6403C87.6463 25.0045 87.5848 23.6637 87.5171 22.765C87.3861 21.0266 87.1364 19.7381 87.0293 19.2158C86.8109 18.1513 86.6221 17.6074 86.7503 18.0225L23.6857 37.4869C23.3228 36.311 22.7903 34.5001 22.3755 32.4781C22.1701 31.4769 21.859 29.7869 21.7035 27.7227C21.5919 26.2403 21.2831 21.6133 22.8326 16.035L86.4248 33.6995ZM86.7998 18.1845C87.1125 19.2162 87.4149 20.2874 87.6668 21.2733C87.777 21.7046 87.9682 22.4709 88.1494 23.3558C88.2181 23.6915 88.4301 24.7326 88.5943 26.0515C88.6599 26.5791 88.8595 28.2183 88.85 30.3211C88.8455 31.2988 88.8009 33.5366 88.2731 36.324C88.0143 37.6902 86.5574 46.1487 79.1811 53.525L32.5121 6.85592C28.4118 10.9562 26.3247 15.1978 25.3002 17.7049C24.2201 20.3483 23.6957 22.6172 23.4256 24.0434C22.899 26.8242 22.8551 29.0534 22.8507 30.0206C22.8412 32.1023 23.0385 33.7126 23.0997 34.2038C23.2548 35.45 23.4486 36.3886 23.491 36.5954C23.5653 36.9582 23.6273 37.2245 23.6556 37.3442C23.6882 37.482 23.7118 37.5753 23.7219 37.6148C23.7479 37.7167 23.7164 37.5897 23.6362 37.325L86.7998 18.1845ZM85.3627 44.9485C75.8898 63.8943 56.5964 63.2652 54.3424 63.1636C49.5547 62.9477 45.9753 61.7155 44.8898 61.3356C42.0696 60.3486 40.0072 59.1895 39.2202 58.737C37.2208 57.5873 35.4771 56.3176 34.0001 55.0679L76.6323 4.6844C75.4107 3.65074 73.9224 2.5579 72.1193 1.52114C71.4306 1.1251 69.4517 0.00653839 66.6929 -0.959038C65.6381 -1.32823 62.0838 -2.55445 57.3148 -2.76944C55.0795 -2.87021 35.7985 -3.50364 26.3305 15.4324L85.3627 44.9485ZM35.0202 55.8967C34.607 55.5744 34.6477 55.6389 35.1611 55.9614C35.3647 56.0892 36.233 56.6331 37.5592 57.2667C38.2168 57.5808 39.4798 58.1552 41.1665 58.7082C42.0348 58.9929 43.265 59.3547 44.7728 59.6598C46.2193 59.9524 48.4538 60.3029 51.2109 60.3029V-5.69706C56.3631 -5.69706 60.2831 -4.48094 61.7289 -4.00691C63.6075 -3.39096 65.0953 -2.72321 66.0073 -2.28757C67.8424 -1.41098 69.3381 -0.510986 70.261 0.0686188C72.2133 1.29464 74.0612 2.64573 75.6123 3.85558L35.0202 55.8967ZM51.2109 60.3029C54.7447 60.3029 57.5192 59.7249 59.0563 59.3406C60.723 58.924 62.0375 58.4514 62.8804 58.1213C64.5242 57.4773 65.6962 56.8506 66.1812 56.5839C67.1986 56.0243 67.7105 55.6459 67.503 55.7912L29.6545 1.72186C30.8219 0.904629 32.4731 -0.200569 34.3745 -1.24634C35.3014 -1.75612 36.8516 -2.56575 38.8072 -3.33184C39.994 -3.79673 44.7973 -5.69706 51.2109 -5.69706V60.3029ZM67.6275 55.7036C66.6702 56.3803 65.3989 57.2435 64.0346 58.0585C63.582 58.3289 61.9926 59.2809 59.9345 60.185C59.5093 60.3718 55.9756 62.0022 51.1937 62.6835C49.4563 62.931 41.8157 64.0286 33.1348 60.1807C28.0254 57.9159 22.4711 53.8681 18.4614 47.4081C14.5414 41.0927 13.4966 34.7294 13.4966 29.994H79.4966C79.4966 25.2672 78.4536 18.9111 74.5373 12.6016C70.5311 6.14741 64.9823 2.10414 59.8801 -0.157436C51.2136 -3.99895 43.5943 -2.9003 41.8849 -2.65678C37.159 -1.9835 33.7079 -0.381348 33.3889 -0.241207C31.5432 0.569599 30.2607 1.35466 30.1862 1.39915C29.5782 1.76236 29.348 1.93808 29.5299 1.80945L67.6275 55.7036ZM13.4966 29.994C13.4966 27.1747 13.8778 24.9709 13.9335 24.6306C14.0623 23.8439 14.194 23.218 14.2667 22.8843C14.4172 22.193 14.5618 21.6323 14.6368 21.3471C14.8019 20.7192 14.968 20.1492 15.0921 19.7348C15.3542 18.8596 15.6733 17.8646 16.0206 16.8557L78.4261 38.3395C78.361 38.5288 78.3167 38.673 78.3185 38.667C78.3219 38.6555 78.3349 38.6119 78.3557 38.5389C78.3742 38.474 78.4145 38.3309 78.4674 38.1296C78.5065 37.9809 78.6234 37.5333 78.7551 36.9284C78.8184 36.6378 78.9429 36.0484 79.0669 35.2911C79.13 34.9058 79.2205 34.3104 79.3008 33.5776C79.3707 32.9406 79.4966 31.6426 79.4966 29.994H13.4966ZM15.8758 17.2859C15.9631 17.0206 15.6984 17.7645 15.4258 19.0703C15.2889 19.726 15.0172 21.141 14.8899 23.0197C14.7903 24.49 14.5822 28.6262 15.9969 33.7191L79.5891 16.0546C81.0529 21.3244 80.8595 25.7012 80.7391 27.4796C80.591 29.6664 80.2628 31.4571 80.0326 32.5597C79.5733 34.7592 78.9747 36.6817 78.5709 37.9093L15.8758 17.2859ZM15.5788 32.0456C16.4333 35.8907 17.8111 38.7983 18.7735 40.56C19.7746 42.3926 20.7662 43.7806 21.4466 44.6661C22.7566 46.3712 23.9156 47.5041 24.3412 47.9126C25.221 48.7569 25.7563 49.1404 25.264 48.756L65.8827 -3.26441C66.8243 -2.52919 68.4302 -1.25193 70.0417 0.294636C70.8332 1.05425 72.2732 2.49039 73.7828 4.45511C74.8416 5.83315 78.4132 10.5551 80.0072 17.7282L15.5788 32.0456ZM25.4646 48.9114L23.3432 47.281L63.5607 -5.05016L65.6821 -3.4198L25.4646 48.9114ZM42.2907 -11.8641L45.08 -11.9623L47.4025 53.9968L44.6132 54.095L42.2907 -11.8641ZM45.031 -11.9606C46.1193 -12.0005 45.4627 -12.0096 44.2634 -11.8542C43.7025 -11.7816 41.6767 -11.514 39.104 -10.7012C36.9752 -10.0287 30.5711 -7.82576 24.8875 -1.57384L73.7235 42.8226C67.9418 49.1825 61.3731 51.4788 58.9858 52.233C56.1547 53.1273 53.7766 53.4649 52.7418 53.5989C50.5947 53.8771 48.5042 53.9564 47.4514 53.995L45.031 -11.9606ZM25.971 -2.71016C24.4074 -1.14655 23.327 0.253475 22.7458 1.04425C22.1083 1.91185 21.6289 2.65526 21.3162 3.1604C20.7049 4.14789 20.2842 4.95024 20.0773 5.35502C19.6514 6.18854 19.3873 6.80611 19.3085 6.99169C19.1181 7.43969 19.0356 7.67874 19.0125 7.74537L81.3664 29.3784C81.0094 30.4075 80.5634 31.5992 80.0539 32.7986C79.8154 33.3598 79.4028 34.3027 78.8486 35.3873C78.5776 35.9176 78.0978 36.8269 77.4337 37.8998C77.0402 38.5354 75.4138 41.1851 72.64 43.9589L25.971 -2.71016ZM18.9572 7.90615C19.0795 7.54764 19.1373 7.37217 19.2921 6.91355C19.3917 6.61851 19.6275 5.91837 19.9028 5.17838C20.0676 4.73519 20.8152 2.68899 22.089 0.361149C22.7241 -0.799335 24.1415 -3.25473 26.5121 -5.90911C28.6693 -8.3245 33.9196 -13.521 42.68 -15.8639C52.989 -18.621 62.4299 -15.9784 68.9583 -11.8382C74.4049 -8.38401 77.4429 -4.21567 78.6276 -2.47862C81.0178 1.02601 82.2097 4.29939 82.3398 4.63738C82.7028 5.58029 82.9894 6.44469 83.0633 6.66529C83.2168 7.12397 83.23 7.16787 83.3146 7.41644L20.8357 28.6859C20.1674 26.7226 20.5774 27.9102 20.7461 28.3485C20.8747 28.6826 21.1521 29.3857 21.5677 30.2726C21.9345 31.0553 22.7562 32.7363 24.1015 34.7089C25.2317 36.366 28.2168 40.4775 33.6109 43.8984C40.0868 48.0053 49.4757 50.6382 59.7319 47.8952C68.4395 45.5665 73.6363 40.4079 75.7379 38.0547C78.053 35.4625 79.4129 33.0935 79.9873 32.0439C81.1397 29.9379 81.7531 28.2117 81.7615 28.1893C81.8087 28.0623 81.9987 27.5264 81.4217 29.2176L18.9572 7.90615ZM83.3475 7.51371C83.6059 8.28037 83.3356 7.35826 82.6666 5.93964C82.3013 5.16498 81.4558 3.45615 80.0241 1.43722C78.5753 -0.605881 75.9279 -3.82239 71.6767 -6.65651L35.0665 48.2588C26.9119 42.8224 23.5737 35.3678 22.9716 34.0912C21.8951 31.8083 21.1534 29.6291 20.8028 28.5886L83.3475 7.51371Z" fill="black" mask="url(#path-2-inside-1_44_3383)"/>
<mask id="path-4-inside-2_44_3383" fill="white">
<path d="M106.508 12.5708C105.487 12.9833 104.976 13.8083 104.171 16.2244L103.64 17.8351L101.421 17.9136C98.9458 18.0119 98.1994 18.2869 97.4333 19.4261C96.7851 20.3886 96.6869 21.2726 97.0797 22.3333C97.3744 23.0797 97.7083 23.4333 99.1619 24.5136C100.124 25.2011 100.91 25.9279 100.91 26.0851C100.91 26.2619 100.635 27.244 100.301 28.2851C99.5547 30.544 99.6137 31.2708 100.655 32.4297C101.519 33.3922 102.599 33.7262 103.739 33.3922C104.19 33.2547 105.271 32.6262 106.155 31.9779L107.785 30.7994L109.415 31.9779C110.299 32.6262 111.38 33.2547 111.832 33.3922C112.971 33.7262 114.051 33.3922 114.915 32.4297C115.937 31.2904 116.015 30.4065 115.249 28.2065C114.935 27.2244 114.66 26.3012 114.66 26.1244C114.66 25.9476 115.426 25.2601 116.349 24.5726C117.685 23.5904 118.117 23.1583 118.432 22.4511C119.08 20.9779 118.707 19.6029 117.39 18.6011C116.683 18.0904 115.623 17.894 113.639 17.8744H111.949L111.419 16.244C110.712 14.0833 110.103 13.0815 109.278 12.6886C108.571 12.3547 107.157 12.2958 106.508 12.5708ZM109.946 20.8011C110.28 21.0369 111.085 21.1351 112.951 21.2136L115.485 21.3119L113.403 22.8244C111.93 23.9047 111.301 24.494 111.203 24.8672C111.105 25.2208 111.301 26.1637 111.792 27.7547C112.185 29.0512 112.46 30.1512 112.421 30.1904C112.401 30.2297 112.146 30.0922 111.89 29.8762C109.926 28.344 108.276 27.3029 107.785 27.3029C107.432 27.3029 106.528 27.794 105.153 28.7565C104.014 29.5619 103.071 30.1315 103.071 29.994C103.071 29.8762 103.385 28.7958 103.798 27.5976C104.289 26.1047 104.465 25.2404 104.367 24.8869C104.289 24.5333 103.582 23.8654 102.148 22.7458L100.026 21.1154L102.815 21.0172C104.957 20.9386 105.683 20.8404 105.88 20.6244C106.037 20.4672 106.41 19.5833 106.705 18.6601C107.019 17.7369 107.392 16.6761 107.549 16.3029L107.844 15.6154L108.649 18.0511C109.258 19.8583 109.592 20.5654 109.946 20.8011Z"/>
</mask>
<path d="M106.508 12.5708C105.487 12.9833 104.976 13.8083 104.171 16.2244L103.64 17.8351L101.421 17.9136C98.9458 18.0119 98.1994 18.2869 97.4333 19.4261C96.7851 20.3886 96.6869 21.2726 97.0797 22.3333C97.3744 23.0797 97.7083 23.4333 99.1619 24.5136C100.124 25.2011 100.91 25.9279 100.91 26.0851C100.91 26.2619 100.635 27.244 100.301 28.2851C99.5547 30.544 99.6137 31.2708 100.655 32.4297C101.519 33.3922 102.599 33.7262 103.739 33.3922C104.19 33.2547 105.271 32.6262 106.155 31.9779L107.785 30.7994L109.415 31.9779C110.299 32.6262 111.38 33.2547 111.832 33.3922C112.971 33.7262 114.051 33.3922 114.915 32.4297C115.937 31.2904 116.015 30.4065 115.249 28.2065C114.935 27.2244 114.66 26.3012 114.66 26.1244C114.66 25.9476 115.426 25.2601 116.349 24.5726C117.685 23.5904 118.117 23.1583 118.432 22.4511C119.08 20.9779 118.707 19.6029 117.39 18.6011C116.683 18.0904 115.623 17.894 113.639 17.8744H111.949L111.419 16.244C110.712 14.0833 110.103 13.0815 109.278 12.6886C108.571 12.3547 107.157 12.2958 106.508 12.5708ZM109.946 20.8011C110.28 21.0369 111.085 21.1351 112.951 21.2136L115.485 21.3119L113.403 22.8244C111.93 23.9047 111.301 24.494 111.203 24.8672C111.105 25.2208 111.301 26.1637 111.792 27.7547C112.185 29.0512 112.46 30.1512 112.421 30.1904C112.401 30.2297 112.146 30.0922 111.89 29.8762C109.926 28.344 108.276 27.3029 107.785 27.3029C107.432 27.3029 106.528 27.794 105.153 28.7565C104.014 29.5619 103.071 30.1315 103.071 29.994C103.071 29.8762 103.385 28.7958 103.798 27.5976C104.289 26.1047 104.465 25.2404 104.367 24.8869C104.289 24.5333 103.582 23.8654 102.148 22.7458L100.026 21.1154L102.815 21.0172C104.957 20.9386 105.683 20.8404 105.88 20.6244C106.037 20.4672 106.41 19.5833 106.705 18.6601C107.019 17.7369 107.392 16.6761 107.549 16.3029L107.844 15.6154L108.649 18.0511C109.258 19.8583 109.592 20.5654 109.946 20.8011Z" fill="black"/>
<path d="M106.508 12.5708L119.396 42.95L119.132 43.0622L118.866 43.1698L106.508 12.5708ZM104.171 16.2244L72.8262 5.90359L72.8451 5.84619L72.8643 5.78885L104.171 16.2244ZM103.64 17.8351L134.985 28.1558L127.792 50.0008L104.808 50.8144L103.64 17.8351ZM101.421 17.9136L100.112 -15.0604L100.183 -15.0632L100.253 -15.0657L101.421 17.9136ZM97.4333 19.4261L124.818 37.8401L124.811 37.85L124.805 37.86L97.4333 19.4261ZM97.0797 22.3333L66.3846 34.4498L66.2558 34.1236L66.134 33.7947L97.0797 22.3333ZM99.1619 24.5136L79.981 51.3669L79.7271 51.1855L79.4766 50.9993L99.1619 24.5136ZM100.301 28.2851L131.724 38.3642L131.68 38.5017L131.635 38.6388L100.301 28.2851ZM100.655 32.4297L125.204 10.3769L125.208 10.3816L100.655 32.4297ZM103.739 33.3922L113.347 64.9625L113.184 65.0121L113.021 65.06L103.739 33.3922ZM106.155 31.9779L86.6397 5.36657L86.7305 5.29999L86.8218 5.23403L106.155 31.9779ZM107.785 30.7994L88.4521 4.05545L107.785 -9.92018L127.118 4.05545L107.785 30.7994ZM109.415 31.9779L128.748 5.23402L128.84 5.29999L128.93 5.36657L109.415 31.9779ZM111.832 33.3922L102.55 65.06L102.386 65.0121L102.223 64.9625L111.832 33.3922ZM114.915 32.4297L139.486 54.4587L139.478 54.4683L139.469 54.4779L114.915 32.4297ZM115.249 28.2065L84.0847 39.0585L83.947 38.663L83.8194 38.2641L115.249 28.2065ZM116.349 24.5726L96.6396 -1.89484L96.7199 -1.95462L96.8005 -2.0139L116.349 24.5726ZM118.432 22.4511L148.637 35.7415L148.612 35.7977L148.587 35.8537L118.432 22.4511ZM117.39 18.6011L136.712 -8.15126L137.048 -7.90837L137.378 -7.65709L117.39 18.6011ZM113.639 17.8744V-15.1256H113.802L113.965 -15.124L113.639 17.8744ZM111.949 17.8744V50.8744H87.9822L80.568 28.0828L111.949 17.8744ZM111.419 16.244L142.782 5.97972L142.791 6.00766L142.8 6.03562L111.419 16.244ZM109.278 12.6886L123.369 -17.1516L123.417 -17.1287L123.466 -17.1057L109.278 12.6886ZM109.946 20.8011L128.251 -6.65651L128.617 -6.41248L128.976 -6.15879L109.946 20.8011ZM112.951 21.2136L111.673 54.1889L111.618 54.1868L111.563 54.1844L112.951 21.2136ZM115.485 21.3119L116.763 -11.6634L211.95 -7.97396L134.88 48.011L115.485 21.3119ZM113.403 22.8244L93.8879 -3.787L93.948 -3.83104L94.0083 -3.87481L113.403 22.8244ZM111.203 24.8672L143.116 33.2655L143.059 33.4829L142.999 33.6995L111.203 24.8672ZM111.792 27.7547L143.325 18.0225L143.349 18.1034L143.374 18.1845L111.792 27.7547ZM112.421 30.1904L82.9047 15.4324L85.2996 10.6426L89.0863 6.85592L112.421 30.1904ZM111.89 29.8762L132.186 3.85558L132.705 4.25983L133.207 4.6844L111.89 29.8762ZM105.153 28.7565L86.1042 1.80945L86.1663 1.76551L86.2287 1.72186L105.153 28.7565ZM103.798 27.5976L135.145 37.9093L135.074 38.1249L135 38.3395L103.798 27.5976ZM104.367 24.8869L72.5711 33.7191L72.3402 32.8878L72.1531 32.0456L104.367 24.8869ZM102.148 22.7458L122.256 -3.4198L122.357 -3.34249L122.457 -3.26441L102.148 22.7458ZM100.026 21.1154L79.9174 47.281L7.15914 -8.63505L98.8649 -11.8641L100.026 21.1154ZM102.815 21.0172L104.026 53.995L104.001 53.9959L103.977 53.9968L102.815 21.0172ZM105.88 20.6244L81.4617 -1.57384L81.9899 -2.15489L82.5452 -2.71016L105.88 20.6244ZM106.705 18.6601L75.267 8.62675L75.3632 8.32511L75.4653 8.02537L106.705 18.6601ZM107.549 16.3029L77.1354 3.49706L77.1762 3.4002L77.2176 3.3036L107.549 16.3029ZM107.844 15.6154L77.5122 2.6161L111.828 -77.4542L139.176 5.25575L107.844 15.6154ZM108.649 18.0511L77.377 28.5886L77.3471 28.4998L77.3176 28.4108L108.649 18.0511ZM118.866 43.1698C121.4 42.1461 124.322 40.559 127.17 38.1432C129.957 35.7795 131.86 33.3127 133.104 31.3552C135.114 28.1948 135.833 25.5924 135.477 26.6599L72.8643 5.78885C73.2797 4.54236 77.4823 -11.2966 94.151 -18.0282L118.866 43.1698ZM135.515 26.5451L134.985 28.1558L72.2959 7.51431L72.8262 5.90359L135.515 26.5451ZM104.808 50.8144L102.588 50.893L100.253 -15.0657L102.473 -15.1443L104.808 50.8144ZM102.729 50.8877C102.519 50.8961 103.176 50.8815 104.227 50.7411C105.289 50.5993 107.6 50.2255 110.443 49.152C113.58 47.9678 116.753 46.1667 119.644 43.6607C122.342 41.3226 124.007 39.0463 124.818 37.8401L70.0485 1.01223C73.0376 -3.43305 78.3534 -9.27935 87.129 -12.593C93.2658 -14.9102 98.9747 -15.0153 100.112 -15.0604L102.729 50.8877ZM124.805 37.86C126.715 35.0231 128.939 30.5815 129.634 24.7479C130.33 18.9108 129.21 14.0706 128.025 10.8719L66.134 33.7947C64.5565 29.5353 63.2894 23.7227 64.098 16.9379C64.9061 10.1566 67.5031 4.79174 70.0619 0.99234L124.805 37.86ZM127.775 10.2168C127.387 9.23406 126.648 7.51996 125.424 5.53243C124.164 3.48573 122.807 1.8237 121.57 0.525768C120.449 -0.648949 119.518 -1.42668 119.169 -1.71261C118.815 -2.00244 118.627 -2.13584 118.847 -1.972L79.4766 50.9993C78.9034 50.5733 76.2989 48.6886 73.8029 46.0707C70.0674 42.153 67.806 38.0507 66.3846 34.4498L127.775 10.2168ZM118.343 -2.33955C119.736 -1.34458 121.189 -0.194675 122.567 1.05452C123.182 1.61288 124.322 2.67593 125.565 4.0913C126.13 4.73461 127.344 6.15426 128.613 8.1245C129.248 9.11009 130.299 10.848 131.282 13.1644C132.103 15.1006 133.91 19.7913 133.91 26.0851H67.9101C67.9101 32.3592 69.7112 37.0259 70.5204 38.9338C71.4908 41.222 72.5238 42.9274 73.1356 43.8768C74.3586 45.7745 75.5029 47.1062 75.9793 47.6486C77.0452 48.862 77.9281 49.6709 78.227 49.942C78.9709 50.6166 79.5505 51.0594 79.981 51.3669L118.343 -2.33955ZM133.91 26.0851C133.91 29.2433 133.428 31.7425 133.385 31.9831C133.238 32.8045 133.089 33.4696 133.003 33.8369C132.824 34.6048 132.644 35.2713 132.527 35.6932C132.276 36.5967 131.993 37.5274 131.724 38.3642L68.8781 18.206C68.9436 18.0017 68.9647 17.9208 68.9348 18.0287C68.928 18.0529 68.8375 18.3756 68.7208 18.8772C68.6663 19.1113 68.5407 19.6625 68.4105 20.3922C68.3447 20.7613 68.243 21.3681 68.1503 22.1267C68.0743 22.7496 67.9101 24.21 67.9101 26.0851H133.91ZM131.635 38.6388C131.638 38.6291 131.705 38.4263 131.8 38.0929C131.894 37.7636 132.054 37.1676 132.217 36.3786C132.526 34.8769 133.018 31.8612 132.69 27.9855C132.33 23.7293 131.096 19.7337 129.255 16.2371C127.621 13.1319 125.856 11.1025 125.204 10.3769L76.1053 54.4826C73.4223 51.4958 67.848 44.451 66.9253 33.5543C66.2414 25.4772 68.6565 18.8723 68.9675 17.9313L131.635 38.6388ZM125.208 10.3816C122.315 7.15989 117.919 3.76163 111.903 1.88873C105.758 -0.0242081 99.6527 0.201515 94.4567 1.72448L113.021 65.06C98.4776 69.3226 84.5734 63.9129 76.1011 54.4779L125.208 10.3816ZM94.1303 1.82199C92.7132 2.25329 91.6307 2.69204 91.0462 2.94005C90.3992 3.21456 89.8869 3.45912 89.5465 3.62756C88.8777 3.9585 88.396 4.23217 88.137 4.38351C87.6376 4.67531 87.167 4.97992 86.6397 5.36657L125.67 58.5893C124.259 59.6242 122.806 60.5672 121.432 61.3697C120.956 61.6479 117.633 63.6579 113.347 64.9625L94.1303 1.82199ZM86.8218 5.23403L88.4521 4.05545L127.118 57.5433L125.488 58.7218L86.8218 5.23403ZM127.118 4.05545L128.748 5.23402L90.0825 58.7218L88.4521 57.5433L127.118 4.05545ZM128.93 5.36657C128.403 4.97992 127.933 4.67531 127.433 4.38351C127.174 4.23217 126.692 3.9585 126.024 3.62756C125.683 3.45912 125.171 3.21456 124.524 2.94005C123.939 2.69204 122.857 2.25329 121.44 1.82199L102.223 64.9625C97.9369 63.6579 94.6141 61.6479 94.1379 61.3697C92.7644 60.5672 91.3116 59.6242 89.9004 58.5893L128.93 5.36657ZM121.113 1.72448C115.917 0.201515 109.812 -0.0242081 103.667 1.88873C97.6514 3.76163 93.2548 7.1599 90.3618 10.3816L139.469 54.4779C130.997 63.9129 117.093 69.3226 102.55 65.06L121.113 1.72448ZM90.3446 10.4007C89.3969 11.4578 87.6044 13.6191 86.0032 16.8144C84.2669 20.2795 83.1791 24.106 82.8598 28.0592C82.5631 31.7331 83.0026 34.6403 83.3417 36.2875C83.6685 37.8754 84.0405 38.9314 84.0847 39.0585L146.414 17.3545C146.986 18.9965 149.291 25.3774 148.646 33.3726C147.813 43.6866 142.835 50.7236 139.486 54.4587L90.3446 10.4007ZM83.8194 38.2641C83.6175 37.6331 83.3593 36.8083 83.1223 35.984C83.013 35.604 82.8241 34.9341 82.6348 34.1521C82.5437 33.776 82.3801 33.0783 82.2203 32.212C82.1625 31.8988 81.6601 29.3563 81.6601 26.1244H147.66C147.66 24.2268 147.492 22.7441 147.408 22.0695C147.308 21.2717 147.198 20.6319 147.125 20.2366C146.981 19.4585 146.842 18.8696 146.781 18.6203C146.653 18.0917 146.553 17.7472 146.551 17.7429C146.53 17.6699 146.567 17.7978 146.679 18.1489L83.8194 38.2641ZM81.6601 26.1244C81.6601 16.319 86.0976 9.54206 86.5711 8.77079C87.8924 6.61845 89.1824 5.07316 89.7984 4.35851C91.1232 2.82146 92.3398 1.6878 92.9215 1.15731C94.2548 -0.0586662 95.5768 -1.10338 96.6396 -1.89484L136.059 51.04C136.199 50.936 136.676 50.5788 137.396 49.9227C137.67 49.6721 138.638 48.7864 139.79 47.4495C140.32 46.8349 141.543 45.3777 142.819 43.2995C143.467 42.2426 144.479 40.4638 145.4 38.1109C146.234 35.9784 147.66 31.7156 147.66 26.1244H81.6601ZM96.8005 -2.0139C97.3677 -2.43094 95.9441 -1.45584 94.2588 0.255806C93.23 1.30063 92.0384 2.67212 90.8708 4.38956C89.694 6.12064 88.8589 7.73643 88.2757 9.04858L148.587 35.8537C144.444 45.1758 137.496 49.9844 135.898 51.1591L96.8005 -2.0139ZM88.2261 9.16078C86.0161 14.1836 84.6977 21.2273 86.7939 28.9714C88.8647 36.622 93.4178 41.826 97.4028 44.8594L137.378 -7.65709C142.679 -3.6219 148.077 2.77043 150.501 11.7273C152.951 20.7777 151.495 29.2454 148.637 35.7415L88.2261 9.16078ZM98.0693 45.3536C102.713 48.7073 107.183 49.9653 109.776 50.4626C111.027 50.7025 111.989 50.7942 112.499 50.8323C112.771 50.8527 112.979 50.8624 113.105 50.8672C113.233 50.8719 113.306 50.8727 113.312 50.8727L113.965 -15.124C115.683 -15.107 126.653 -15.4157 136.712 -8.15126L98.0693 45.3536ZM113.639 50.8744H111.949V-15.1256H113.639V50.8744ZM80.568 28.0828L80.0377 26.4524L142.8 6.03562L143.331 7.66598L80.568 28.0828ZM80.0559 26.5083C80.0665 26.5408 80.2005 26.9522 80.4708 27.5967C80.7326 28.2208 81.262 29.4008 82.1385 30.8533C83.9613 33.874 87.9085 39.0632 95.0901 42.483L123.466 -17.1057C131.472 -13.293 136.137 -7.40651 138.647 -3.24656C140.917 0.515041 142.163 4.08766 142.782 5.97972L80.0559 26.5083ZM95.1867 42.5289C98.2167 43.9597 100.786 44.5752 102.198 44.8561C103.787 45.1724 105.223 45.3189 106.478 45.372C107.72 45.4244 109.249 45.4051 111.013 45.1952C112.494 45.019 115.643 44.5422 119.396 42.95L93.6202 -17.8084C100.645 -20.7887 106.972 -20.666 109.264 -20.5692C111.929 -20.4566 117.402 -19.9692 123.369 -17.1516L95.1867 42.5289ZM128.976 -6.15879C124.984 -8.97691 121.296 -10.2196 119.411 -10.7617C117.429 -11.3312 115.88 -11.5578 115.257 -11.6412C114.109 -11.7951 113.46 -11.7942 114.339 -11.7571L111.563 54.1844C110.576 54.1429 108.591 54.0555 106.49 53.7739C105.765 53.6766 98.2392 52.9309 90.9153 47.7611L128.976 -6.15879ZM114.229 -11.7616L116.763 -11.6634L114.207 54.2871L111.673 54.1889L114.229 -11.7616ZM134.88 48.011L132.798 49.5235L94.0083 -3.87481L96.0904 -5.38731L134.88 48.011ZM132.918 49.4357C132.437 49.7881 133.171 49.2901 134.268 48.2692C134.831 47.745 136.122 46.505 137.547 44.6505C138.804 43.0153 141.579 39.1088 143.116 33.2655L79.2895 16.4689C80.8763 10.439 83.7667 6.31893 85.2148 4.43451C86.8315 2.33075 88.3898 0.805962 89.3067 -0.0472908C91.1109 -1.72618 92.8952 -3.059 93.8879 -3.787L132.918 49.4357ZM142.999 33.6995C143.83 30.7073 144.064 28.1958 144.14 26.6403C144.221 25.0045 144.159 23.6637 144.091 22.765C143.96 21.0266 143.711 19.7381 143.603 19.2158C143.385 18.1513 143.196 17.6074 143.325 18.0225L80.2599 37.4869C79.897 36.311 79.3645 34.5001 78.9497 32.4781C78.7443 31.4769 78.4333 29.7869 78.2778 27.7227C78.1661 26.2403 77.8573 21.6133 79.4069 16.035L142.999 33.6995ZM143.374 18.1845C143.687 19.2162 143.989 20.2874 144.241 21.2733C144.351 21.7046 144.542 22.4709 144.724 23.3558C144.792 23.6915 145.004 24.7326 145.168 26.0515C145.234 26.5791 145.434 28.2183 145.424 30.3211C145.42 31.2988 145.375 33.5366 144.847 36.324C144.589 37.6902 143.132 46.1487 135.755 53.525L89.0863 6.85592C84.986 10.9562 82.8989 15.1978 81.8745 17.7049C80.7943 20.3483 80.2699 22.6172 79.9999 24.0434C79.4732 26.8242 79.4293 29.0534 79.4249 30.0206C79.4154 32.1023 79.6128 33.7126 79.6739 34.2038C79.829 35.45 80.0228 36.3886 80.0652 36.5954C80.1395 36.9582 80.2015 37.2245 80.2298 37.3442C80.2624 37.482 80.286 37.5753 80.2961 37.6148C80.3222 37.7167 80.2906 37.5897 80.2104 37.325L143.374 18.1845ZM141.937 44.9485C132.464 63.8943 113.171 63.2652 110.917 63.1636C106.129 62.9477 102.55 61.7155 101.464 61.3356C98.6438 60.3486 96.5815 59.1895 95.7945 58.737C93.795 57.5873 92.0513 56.3176 90.5743 55.0679L133.207 4.6844C131.985 3.65074 130.497 2.5579 128.694 1.52114C128.005 1.1251 126.026 0.00653839 123.267 -0.959038C122.212 -1.32823 118.658 -2.55445 113.889 -2.76944C111.654 -2.87021 92.3727 -3.50364 82.9047 15.4324L141.937 44.9485ZM91.5944 55.8967C91.1812 55.5744 91.2219 55.6389 91.7354 55.9614C91.9389 56.0892 92.8072 56.6331 94.1334 57.2667C94.791 57.5808 96.054 58.1552 97.7407 58.7082C98.609 58.9929 99.8392 59.3547 101.347 59.6598C102.793 59.9524 105.028 60.3029 107.785 60.3029V-5.69706C112.937 -5.69706 116.857 -4.48094 118.303 -4.00691C120.182 -3.39096 121.67 -2.72321 122.582 -2.28757C124.417 -1.41098 125.912 -0.510986 126.835 0.0686188C128.788 1.29464 130.635 2.64573 132.186 3.85558L91.5944 55.8967ZM107.785 60.3029C111.319 60.3029 114.093 59.7249 115.631 59.3406C117.297 58.924 118.612 58.4514 119.455 58.1213C121.098 57.4773 122.27 56.8506 122.755 56.5839C123.773 56.0243 124.285 55.6459 124.077 55.7912L86.2287 1.72186C87.3962 0.904629 89.0473 -0.200569 90.9487 -1.24634C91.8756 -1.75612 93.4258 -2.56575 95.3814 -3.33184C96.5682 -3.79673 101.372 -5.69706 107.785 -5.69706V60.3029ZM124.202 55.7036C123.244 56.3803 121.973 57.2435 120.609 58.0585C120.156 58.3289 118.567 59.2809 116.509 60.185C116.084 60.3718 112.55 62.0022 107.768 62.6835C106.031 62.931 98.3899 64.0286 89.709 60.1807C84.5997 57.9159 79.0454 53.8681 75.0356 47.4081C71.1156 41.0927 70.0708 34.7294 70.0708 29.994H136.071C136.071 25.2672 135.028 18.9111 131.111 12.6016C127.105 6.14741 121.556 2.10414 116.454 -0.157436C107.788 -3.99895 100.169 -2.9003 98.4592 -2.65678C93.7333 -1.9835 90.2821 -0.381348 89.9631 -0.241207C88.1175 0.569599 86.8349 1.35466 86.7604 1.39915C86.1524 1.76236 85.9222 1.93808 86.1042 1.80945L124.202 55.7036ZM70.0708 29.994C70.0708 27.1747 70.452 24.9709 70.5078 24.6306C70.6365 23.8439 70.7682 23.218 70.8409 22.8843C70.9914 22.193 71.136 21.6323 71.211 21.3471C71.3761 20.7192 71.5423 20.1492 71.6663 19.7348C71.9284 18.8596 72.2475 17.8646 72.5948 16.8557L135 38.3395C134.935 38.5288 134.891 38.673 134.893 38.667C134.896 38.6555 134.909 38.6119 134.93 38.5389C134.948 38.474 134.989 38.3309 135.042 38.1296C135.081 37.9809 135.198 37.5333 135.329 36.9284C135.393 36.6378 135.517 36.0484 135.641 35.2911C135.704 34.9058 135.795 34.3104 135.875 33.5776C135.945 32.9406 136.071 31.6426 136.071 29.994H70.0708ZM72.45 17.2859C72.5373 17.0206 72.2726 17.7645 72 19.0703C71.8631 19.726 71.5914 21.141 71.4641 23.0197C71.3646 24.49 71.1564 28.6262 72.5711 33.7191L136.163 16.0546C137.627 21.3244 137.434 25.7012 137.313 27.4796C137.165 29.6664 136.837 31.4571 136.607 32.5597C136.148 34.7592 135.549 36.6817 135.145 37.9093L72.45 17.2859ZM72.1531 32.0456C73.0075 35.8907 74.3853 38.7983 75.3477 40.56C76.3489 42.3926 77.3404 43.7806 78.0208 44.6661C79.3309 46.3712 80.4898 47.5041 80.9154 47.9126C81.7952 48.7569 82.3306 49.1404 81.8382 48.756L122.457 -3.26441C123.399 -2.52919 125.004 -1.25193 126.616 0.294636C127.407 1.05425 128.847 2.49039 130.357 4.45511C131.416 5.83315 134.987 10.5551 136.581 17.7282L72.1531 32.0456ZM82.0388 48.9114L79.9174 47.281L120.135 -5.05016L122.256 -3.4198L82.0388 48.9114ZM98.8649 -11.8641L101.654 -11.9623L103.977 53.9968L101.187 54.095L98.8649 -11.8641ZM101.605 -11.9606C102.694 -12.0005 102.037 -12.0096 100.838 -11.8542C100.277 -11.7816 98.2509 -11.514 95.6782 -10.7012C93.5494 -10.0287 87.1453 -7.82576 81.4617 -1.57384L130.298 42.8226C124.516 49.1825 117.947 51.4788 115.56 52.233C112.729 53.1273 110.351 53.4649 109.316 53.5989C107.169 53.8771 105.078 53.9564 104.026 53.995L101.605 -11.9606ZM82.5452 -2.71016C81.0802 -1.24517 80.0486 0.0666199 79.4611 0.85413C78.8277 1.70313 78.346 2.43609 78.0217 2.95126C77.388 3.95773 76.9477 4.78374 76.716 5.23232C76.2428 6.14805 75.9432 6.84676 75.8228 7.133C75.5555 7.76833 75.3885 8.24582 75.267 8.62675L138.142 28.6934C137.726 29.9975 137.225 31.3786 136.659 32.726C136.388 33.3683 135.948 34.3751 135.351 35.5296C135.058 36.0976 134.56 37.0257 133.875 38.1142C133.421 38.835 131.849 41.3245 129.214 43.9589L82.5452 -2.71016ZM75.4653 8.02537C75.6418 7.50683 76.4257 5.1825 77.1354 3.49706L137.963 29.1088C138.04 28.9273 138.1 28.7791 138.141 28.6775C138.183 28.5729 138.216 28.4882 138.239 28.4291C138.262 28.3688 138.28 28.3216 138.292 28.2902C138.305 28.2582 138.313 28.2355 138.318 28.2234C138.326 28.201 138.326 28.2014 138.316 28.229C138.306 28.2552 138.291 28.2959 138.272 28.3517C138.231 28.4654 138.18 28.6106 138.121 28.7802C138.063 28.9478 138.002 29.1235 137.944 29.2948L75.4653 8.02537ZM77.2176 3.3036L77.5122 2.6161L138.176 28.6148L137.881 29.3023L77.2176 3.3036ZM139.176 5.25575L139.981 7.69147L77.3176 28.4108L76.5123 25.9751L139.176 5.25575ZM139.922 7.51371C140.18 8.28037 139.91 7.35826 139.241 5.93964C138.876 5.16498 138.03 3.45615 136.598 1.43722C135.149 -0.605881 132.502 -3.82239 128.251 -6.65651L91.6407 48.2588C83.4861 42.8224 80.1479 35.3678 79.5459 34.0912C78.4693 31.8083 77.7276 29.6291 77.377 28.5886L139.922 7.51371Z" fill="black" mask="url(#path-4-inside-2_44_3383)"/>
<mask id="path-6-inside-3_44_3383" fill="white">
<path d="M77.8304 33.904C75.2179 34.3165 73.1161 35.3969 71.25 37.3022C68.3429 40.2486 67.1446 44.3147 67.9893 48.3415C68.5196 50.8361 70.2679 53.5468 72.2714 55.0201C72.7036 55.3147 72.9589 55.5897 72.8804 55.6486C72.8018 55.6879 71.2107 56.2379 69.3643 56.8468L66.0054 57.9665L65.1411 57.5933C64.6696 57.3968 63.1375 56.8468 61.7232 56.3754C60.3286 55.9236 59.1107 55.5111 59.0321 55.4718C58.9732 55.4326 59.3661 54.9218 59.9161 54.3522C63.6679 50.5218 63.7268 44.7076 60.0536 40.779C56.3214 36.7915 49.9964 36.654 46.1268 40.4647C43.0232 43.529 42.2571 48.3415 44.3 52.1326C45.0464 53.5272 46.9714 55.4326 48.3857 56.1397C49.9179 56.9254 50.8214 57.1415 53.1786 57.3576C54.7304 57.4754 55.8107 57.7504 58.5214 58.6343C60.3875 59.2629 61.9589 59.7933 61.9982 59.8326C62.0375 59.8718 61.6446 60.3236 61.1339 60.8343C59.3268 62.6808 58.4821 64.6254 58.3054 67.4736L58.1875 69.4379L48.8571 69.4968C43.7304 69.5165 39.3107 69.4968 39.075 69.4379C38.6036 69.3201 38.6036 69.3201 38.6821 66.629C38.7411 64.0754 38.7804 63.879 39.3304 62.8772C40.0179 61.6397 41.0589 60.8147 42.8071 60.1665C44.4571 59.5379 44.7714 59.2433 44.6929 58.2808C44.6536 57.6915 44.4964 57.3968 44.1036 57.1022C43.6125 56.729 43.475 56.729 42.5321 56.9451C40.8036 57.3183 39.4679 58.0647 38.1714 59.3611C36.1089 61.4433 35.5 63.2308 35.5 67.2772C35.5 69.9093 35.6375 70.5183 36.4429 71.3629C37.6411 72.6201 37.1893 72.5808 48.1893 72.6397L58.2464 72.6986L58.3643 73.3272C58.5607 74.3486 59.425 75.3701 60.5054 75.9201L61.5071 76.4111H79.2839C91.2268 76.4111 97.3357 76.3326 97.8268 76.1951C98.9071 75.9004 100.066 74.7808 100.459 73.6415L100.793 72.6986L110.83 72.6397C121.811 72.5808 121.379 72.6201 122.557 71.3629C123.363 70.5183 123.5 69.9093 123.5 67.1004C123.5 64.2326 123.225 62.7986 122.38 61.2468C121.339 59.3218 118.943 57.6129 116.409 56.9451C115.604 56.729 115.427 56.7486 114.975 57.0433C113.423 58.0451 114.17 59.6361 116.488 60.304C117.745 60.6379 119.002 61.6593 119.67 62.8772C120.22 63.879 120.259 64.0754 120.318 66.5701C120.377 68.6129 120.338 69.2218 120.141 69.3593C119.984 69.4576 115.564 69.5361 110.3 69.5361H100.714V68.1022C100.714 65.4504 99.7518 62.9951 97.9446 61.0111C97.3946 60.4022 96.9625 59.8718 97.0018 59.8326C97.0411 59.7933 98.6125 59.2629 100.479 58.6343C103.248 57.7308 104.25 57.4754 105.939 57.3379C109.338 57.0433 111.498 56.0808 113.325 54.0379C116.527 50.4826 116.704 45.0415 113.718 41.329C110.496 37.3022 104.604 36.4968 100.341 39.4826C95.4893 42.8808 94.8411 50.129 99.025 54.3129C99.6143 54.9022 100.027 55.4129 99.9679 55.4718C99.8893 55.5111 98.6911 55.9236 97.2768 56.3754C95.8821 56.8468 94.3304 57.3968 93.8589 57.5933L92.9946 57.9665L89.6357 56.8468C87.7893 56.2379 86.2179 55.6879 86.1196 55.6486C86.0411 55.6093 86.4143 55.2165 86.9643 54.7843C88.7714 53.3701 90.1268 51.3272 90.8143 49.0093C91.2857 47.4379 91.2857 44.354 90.8143 42.6254C89.7536 38.7165 86.7482 35.5147 83.0554 34.3558C81.7982 33.9826 78.9893 33.7272 77.8304 33.904ZM82.3089 37.5183C88.3 39.3647 90.1268 47.4576 85.5304 51.8183C83.625 53.6058 81.5429 54.3326 78.8321 54.1558C77.0446 54.0576 75.9643 53.6843 74.4321 52.6826C70.3464 50.0111 69.6589 43.6469 73.0179 39.7968C75.0804 37.4594 79.0089 36.4968 82.3089 37.5183ZM55.8893 41.5254C57.2643 42.2129 58.4036 43.3915 59.0518 44.7665C59.4839 45.6897 59.5625 46.1415 59.5625 47.5361C59.5429 49.0486 59.4839 49.3236 58.875 50.4433C57.6179 52.7808 55.5946 54.0183 52.9821 54.0183C51.2143 54.0183 49.7607 53.4683 48.4839 52.329C45.2232 49.4022 45.7143 44.1183 49.4464 41.879C50.9393 40.9951 51.4696 40.8576 53.2768 40.9361C54.5143 40.9754 55.0643 41.0933 55.8893 41.5254ZM108.454 41.2504C109.888 41.8004 111.341 43.1951 112.048 44.6879C112.48 45.6504 112.579 46.1415 112.598 47.4379C112.598 48.754 112.5 49.2058 112.029 50.2272C110.516 53.5076 106.588 55.0397 103.445 53.5861C101.893 52.879 100.832 51.8379 100.086 50.3254C99.5161 49.1665 99.4375 48.8326 99.4375 47.4379C99.4571 45.729 99.8304 44.629 100.832 43.2933C101.461 42.4879 102.757 41.5451 103.818 41.1522C104.957 40.7397 107.196 40.779 108.454 41.2504ZM82.2107 57.8486C83.8804 58.1826 92.7 61.1093 93.8982 61.7183C95.0179 62.2879 96.3536 63.7022 96.9429 64.979C97.4339 66.0201 97.4732 66.3147 97.5321 69.3593C97.5911 72.1879 97.5518 72.6593 97.2768 72.9343C96.9821 73.2486 95.4696 73.2683 79.4214 73.2683C64.3161 73.2683 61.8411 73.229 61.625 72.9736C61.4679 72.7772 61.4089 71.7558 61.4679 69.3004C61.5268 66.0201 61.5464 65.8629 62.0768 64.8611C62.8036 63.4665 63.7661 62.4451 64.925 61.8165C66.1232 61.1683 74.8839 58.2218 76.6714 57.8683C78.5179 57.4951 80.4036 57.4951 82.2107 57.8486Z"/>
</mask>
<path d="M77.8304 33.904C75.2179 34.3165 73.1161 35.3969 71.25 37.3022C68.3429 40.2486 67.1446 44.3147 67.9893 48.3415C68.5196 50.8361 70.2679 53.5468 72.2714 55.0201C72.7036 55.3147 72.9589 55.5897 72.8804 55.6486C72.8018 55.6879 71.2107 56.2379 69.3643 56.8468L66.0054 57.9665L65.1411 57.5933C64.6696 57.3968 63.1375 56.8468 61.7232 56.3754C60.3286 55.9236 59.1107 55.5111 59.0321 55.4718C58.9732 55.4326 59.3661 54.9218 59.9161 54.3522C63.6679 50.5218 63.7268 44.7076 60.0536 40.779C56.3214 36.7915 49.9964 36.654 46.1268 40.4647C43.0232 43.529 42.2571 48.3415 44.3 52.1326C45.0464 53.5272 46.9714 55.4326 48.3857 56.1397C49.9179 56.9254 50.8214 57.1415 53.1786 57.3576C54.7304 57.4754 55.8107 57.7504 58.5214 58.6343C60.3875 59.2629 61.9589 59.7933 61.9982 59.8326C62.0375 59.8718 61.6446 60.3236 61.1339 60.8343C59.3268 62.6808 58.4821 64.6254 58.3054 67.4736L58.1875 69.4379L48.8571 69.4968C43.7304 69.5165 39.3107 69.4968 39.075 69.4379C38.6036 69.3201 38.6036 69.3201 38.6821 66.629C38.7411 64.0754 38.7804 63.879 39.3304 62.8772C40.0179 61.6397 41.0589 60.8147 42.8071 60.1665C44.4571 59.5379 44.7714 59.2433 44.6929 58.2808C44.6536 57.6915 44.4964 57.3968 44.1036 57.1022C43.6125 56.729 43.475 56.729 42.5321 56.9451C40.8036 57.3183 39.4679 58.0647 38.1714 59.3611C36.1089 61.4433 35.5 63.2308 35.5 67.2772C35.5 69.9093 35.6375 70.5183 36.4429 71.3629C37.6411 72.6201 37.1893 72.5808 48.1893 72.6397L58.2464 72.6986L58.3643 73.3272C58.5607 74.3486 59.425 75.3701 60.5054 75.9201L61.5071 76.4111H79.2839C91.2268 76.4111 97.3357 76.3326 97.8268 76.1951C98.9071 75.9004 100.066 74.7808 100.459 73.6415L100.793 72.6986L110.83 72.6397C121.811 72.5808 121.379 72.6201 122.557 71.3629C123.363 70.5183 123.5 69.9093 123.5 67.1004C123.5 64.2326 123.225 62.7986 122.38 61.2468C121.339 59.3218 118.943 57.6129 116.409 56.9451C115.604 56.729 115.427 56.7486 114.975 57.0433C113.423 58.0451 114.17 59.6361 116.488 60.304C117.745 60.6379 119.002 61.6593 119.67 62.8772C120.22 63.879 120.259 64.0754 120.318 66.5701C120.377 68.6129 120.338 69.2218 120.141 69.3593C119.984 69.4576 115.564 69.5361 110.3 69.5361H100.714V68.1022C100.714 65.4504 99.7518 62.9951 97.9446 61.0111C97.3946 60.4022 96.9625 59.8718 97.0018 59.8326C97.0411 59.7933 98.6125 59.2629 100.479 58.6343C103.248 57.7308 104.25 57.4754 105.939 57.3379C109.338 57.0433 111.498 56.0808 113.325 54.0379C116.527 50.4826 116.704 45.0415 113.718 41.329C110.496 37.3022 104.604 36.4968 100.341 39.4826C95.4893 42.8808 94.8411 50.129 99.025 54.3129C99.6143 54.9022 100.027 55.4129 99.9679 55.4718C99.8893 55.5111 98.6911 55.9236 97.2768 56.3754C95.8821 56.8468 94.3304 57.3968 93.8589 57.5933L92.9946 57.9665L89.6357 56.8468C87.7893 56.2379 86.2179 55.6879 86.1196 55.6486C86.0411 55.6093 86.4143 55.2165 86.9643 54.7843C88.7714 53.3701 90.1268 51.3272 90.8143 49.0093C91.2857 47.4379 91.2857 44.354 90.8143 42.6254C89.7536 38.7165 86.7482 35.5147 83.0554 34.3558C81.7982 33.9826 78.9893 33.7272 77.8304 33.904ZM82.3089 37.5183C88.3 39.3647 90.1268 47.4576 85.5304 51.8183C83.625 53.6058 81.5429 54.3326 78.8321 54.1558C77.0446 54.0576 75.9643 53.6843 74.4321 52.6826C70.3464 50.0111 69.6589 43.6469 73.0179 39.7968C75.0804 37.4594 79.0089 36.4968 82.3089 37.5183ZM55.8893 41.5254C57.2643 42.2129 58.4036 43.3915 59.0518 44.7665C59.4839 45.6897 59.5625 46.1415 59.5625 47.5361C59.5429 49.0486 59.4839 49.3236 58.875 50.4433C57.6179 52.7808 55.5946 54.0183 52.9821 54.0183C51.2143 54.0183 49.7607 53.4683 48.4839 52.329C45.2232 49.4022 45.7143 44.1183 49.4464 41.879C50.9393 40.9951 51.4696 40.8576 53.2768 40.9361C54.5143 40.9754 55.0643 41.0933 55.8893 41.5254ZM108.454 41.2504C109.888 41.8004 111.341 43.1951 112.048 44.6879C112.48 45.6504 112.579 46.1415 112.598 47.4379C112.598 48.754 112.5 49.2058 112.029 50.2272C110.516 53.5076 106.588 55.0397 103.445 53.5861C101.893 52.879 100.832 51.8379 100.086 50.3254C99.5161 49.1665 99.4375 48.8326 99.4375 47.4379C99.4571 45.729 99.8304 44.629 100.832 43.2933C101.461 42.4879 102.757 41.5451 103.818 41.1522C104.957 40.7397 107.196 40.779 108.454 41.2504ZM82.2107 57.8486C83.8804 58.1826 92.7 61.1093 93.8982 61.7183C95.0179 62.2879 96.3536 63.7022 96.9429 64.979C97.4339 66.0201 97.4732 66.3147 97.5321 69.3593C97.5911 72.1879 97.5518 72.6593 97.2768 72.9343C96.9821 73.2486 95.4696 73.2683 79.4214 73.2683C64.3161 73.2683 61.8411 73.229 61.625 72.9736C61.4679 72.7772 61.4089 71.7558 61.4679 69.3004C61.5268 66.0201 61.5464 65.8629 62.0768 64.8611C62.8036 63.4665 63.7661 62.4451 64.925 61.8165C66.1232 61.1683 74.8839 58.2218 76.6714 57.8683C78.5179 57.4951 80.4036 57.4951 82.2107 57.8486Z" fill="black" stroke="black" stroke-width="66" mask="url(#path-6-inside-3_44_3383)"/>
<path d="M9.19531 102.942C8.35156 103.38 7.30208 103.599 6.04688 103.599C4.42188 103.599 3.11979 103.086 2.14062 102.06C1.16146 101.034 0.671875 99.6872 0.671875 98.0205C0.671875 96.2288 1.22135 94.7809 2.32031 93.6768C3.42448 92.5726 4.81771 92.0205 6.5 92.0205C7.58333 92.0205 8.48177 92.1742 9.19531 92.4814V94.3252C8.4401 93.8773 7.60677 93.6533 6.69531 93.6533C5.48177 93.6533 4.4974 94.0413 3.74219 94.8174C2.99219 95.5934 2.61719 96.6299 2.61719 97.9268C2.61719 99.1611 2.96875 100.146 3.67188 100.88C4.375 101.609 5.29948 101.974 6.44531 101.974C7.5026 101.974 8.41927 101.724 9.19531 101.224V102.942ZM18.0938 103.411H16.2812V102.146H16.25C15.724 103.114 14.9062 103.599 13.7969 103.599C11.9062 103.599 10.9609 102.463 10.9609 100.192V95.4111H12.7734V100.005C12.7734 101.442 13.3281 102.161 14.4375 102.161C14.974 102.161 15.4141 101.963 15.7578 101.567C16.1068 101.172 16.2812 100.653 16.2812 100.013V95.4111H18.0938V103.411ZM19.9609 103.161V101.481C20.638 101.997 21.3854 102.255 22.2031 102.255C23.2969 102.255 23.8438 101.932 23.8438 101.286C23.8438 101.104 23.7969 100.95 23.7031 100.825C23.6094 100.695 23.4818 100.58 23.3203 100.481C23.1641 100.382 22.9766 100.294 22.7578 100.216C22.5443 100.138 22.3047 100.049 22.0391 99.9502C21.7109 99.82 21.4141 99.682 21.1484 99.5361C20.888 99.3903 20.6693 99.2262 20.4922 99.0439C20.3203 98.8564 20.1901 98.6455 20.1016 98.4111C20.013 98.1768 19.9688 97.9033 19.9688 97.5908C19.9688 97.2054 20.0599 96.8669 20.2422 96.5752C20.4245 96.2783 20.6693 96.0309 20.9766 95.833C21.2839 95.6299 21.6328 95.4788 22.0234 95.3799C22.4141 95.2757 22.8177 95.2236 23.2344 95.2236C23.974 95.2236 24.6354 95.3356 25.2188 95.5596V97.1455C24.6562 96.7601 24.0104 96.5674 23.2812 96.5674C23.0521 96.5674 22.8438 96.5908 22.6562 96.6377C22.474 96.6846 22.3177 96.7497 22.1875 96.833C22.0573 96.9163 21.9557 97.0179 21.8828 97.1377C21.8099 97.2523 21.7734 97.3799 21.7734 97.5205C21.7734 97.6924 21.8099 97.8382 21.8828 97.958C21.9557 98.0778 22.0625 98.1846 22.2031 98.2783C22.349 98.3669 22.5208 98.4502 22.7188 98.5283C22.9219 98.6012 23.1536 98.682 23.4141 98.7705C23.7578 98.9111 24.0651 99.0544 24.3359 99.2002C24.612 99.346 24.8464 99.5127 25.0391 99.7002C25.2318 99.8825 25.3802 100.096 25.4844 100.341C25.5885 100.58 25.6406 100.867 25.6406 101.2C25.6406 101.606 25.5469 101.961 25.3594 102.263C25.1719 102.565 24.9219 102.815 24.6094 103.013C24.2969 103.211 23.9349 103.356 23.5234 103.45C23.1172 103.549 22.6875 103.599 22.2344 103.599C21.3594 103.599 20.6016 103.453 19.9609 103.161ZM31.5859 103.325C31.2318 103.502 30.7656 103.591 30.1875 103.591C28.6354 103.591 27.8594 102.846 27.8594 101.356V96.833H26.5234V95.4111H27.8594V93.5596L29.6719 93.0439V95.4111H31.5859V96.833H29.6719V100.833C29.6719 101.307 29.7578 101.646 29.9297 101.849C30.1016 102.052 30.388 102.153 30.7891 102.153C31.0964 102.153 31.362 102.065 31.5859 101.888V103.325ZM36.6016 103.599C35.3672 103.599 34.3802 103.226 33.6406 102.481C32.9062 101.731 32.5391 100.739 32.5391 99.5049C32.5391 98.1611 32.9219 97.1117 33.6875 96.3564C34.4583 95.6012 35.4948 95.2236 36.7969 95.2236C38.0469 95.2236 39.0208 95.5908 39.7188 96.3252C40.4167 97.0596 40.7656 98.0778 40.7656 99.3799C40.7656 100.656 40.388 101.679 39.6328 102.45C38.8828 103.216 37.8724 103.599 36.6016 103.599ZM36.6875 96.6689C35.9792 96.6689 35.4193 96.9163 35.0078 97.4111C34.5964 97.9059 34.3906 98.5882 34.3906 99.458C34.3906 100.297 34.599 100.958 35.0156 101.442C35.4323 101.922 35.9896 102.161 36.6875 102.161C37.401 102.161 37.9479 101.924 38.3281 101.45C38.7135 100.976 38.9062 100.302 38.9062 99.4268C38.9062 98.5465 38.7135 97.8669 38.3281 97.3877C37.9479 96.9085 37.401 96.6689 36.6875 96.6689ZM54.5781 103.411H52.7656V99.0518C52.7656 98.2132 52.6458 97.6064 52.4062 97.2314C52.1719 96.8564 51.7734 96.6689 51.2109 96.6689C50.737 96.6689 50.3333 96.9059 50 97.3799C49.6719 97.8538 49.5078 98.4215 49.5078 99.083V103.411H47.6875V98.9033C47.6875 97.4137 47.1615 96.6689 46.1094 96.6689C45.6198 96.6689 45.2161 96.8929 44.8984 97.3408C44.5859 97.7887 44.4297 98.3695 44.4297 99.083V103.411H42.6172V95.4111H44.4297V96.6768H44.4609C45.0391 95.708 45.8802 95.2236 46.9844 95.2236C47.5365 95.2236 48.0182 95.3773 48.4297 95.6846C48.8464 95.9867 49.1302 96.3851 49.2812 96.8799C49.875 95.7757 50.7604 95.2236 51.9375 95.2236C53.6979 95.2236 54.5781 96.3096 54.5781 98.4814V103.411ZM63.5625 99.9033H58.1094C58.1302 100.643 58.3568 101.213 58.7891 101.614C59.2266 102.015 59.8255 102.216 60.5859 102.216C61.4401 102.216 62.224 101.961 62.9375 101.45V102.911C62.2083 103.369 61.2448 103.599 60.0469 103.599C58.8698 103.599 57.9453 103.237 57.2734 102.513C56.6068 101.784 56.2734 100.76 56.2734 99.4424C56.2734 98.1976 56.6406 97.1846 57.375 96.4033C58.1146 95.6169 59.0312 95.2236 60.125 95.2236C61.2188 95.2236 62.0651 95.5752 62.6641 96.2783C63.263 96.9814 63.5625 97.958 63.5625 99.208V99.9033ZM61.8125 98.6221C61.8073 97.971 61.6536 97.4658 61.3516 97.1064C61.0495 96.7419 60.6328 96.5596 60.1016 96.5596C59.5807 96.5596 59.138 96.7497 58.7734 97.1299C58.4141 97.5101 58.1927 98.0075 58.1094 98.6221H61.8125ZM69.9297 97.1377C69.7109 96.9658 69.3958 96.8799 68.9844 96.8799C68.4479 96.8799 68 97.1221 67.6406 97.6064C67.2812 98.0908 67.1016 98.7497 67.1016 99.583V103.411H65.2891V95.4111H67.1016V97.0596H67.1328C67.3099 96.4971 67.5807 96.0596 67.9453 95.7471C68.3151 95.4294 68.7266 95.2705 69.1797 95.2705C69.5078 95.2705 69.7578 95.32 69.9297 95.4189V97.1377ZM75.3047 102.966V101.052C75.4766 101.208 75.6797 101.349 75.9141 101.474C76.1536 101.599 76.4062 101.705 76.6719 101.794C76.9375 101.877 77.2031 101.942 77.4688 101.989C77.7344 102.036 77.9792 102.06 78.2031 102.06C78.9844 102.06 79.5651 101.929 79.9453 101.669C80.3307 101.409 80.5234 101.031 80.5234 100.536C80.5234 100.271 80.4583 100.041 80.3281 99.8486C80.2031 99.6507 80.026 99.471 79.7969 99.3096C79.5677 99.1481 79.2969 98.9945 78.9844 98.8486C78.6771 98.6976 78.3464 98.5413 77.9922 98.3799C77.612 98.1768 77.2578 97.971 76.9297 97.7627C76.6016 97.5544 76.3151 97.3252 76.0703 97.0752C75.8307 96.82 75.6406 96.5335 75.5 96.2158C75.3646 95.8981 75.2969 95.5257 75.2969 95.0986C75.2969 94.5726 75.4141 94.1169 75.6484 93.7314C75.888 93.3408 76.2005 93.0205 76.5859 92.7705C76.9766 92.5153 77.4193 92.3278 77.9141 92.208C78.4089 92.083 78.9141 92.0205 79.4297 92.0205C80.6016 92.0205 81.4557 92.1533 81.9922 92.4189V94.2549C81.3568 93.7965 80.5391 93.5674 79.5391 93.5674C79.263 93.5674 78.987 93.5934 78.7109 93.6455C78.4401 93.6976 78.1953 93.7835 77.9766 93.9033C77.763 94.0231 77.5885 94.1768 77.4531 94.3643C77.3177 94.5518 77.25 94.7783 77.25 95.0439C77.25 95.2939 77.3021 95.5101 77.4062 95.6924C77.5104 95.8747 77.6615 96.0413 77.8594 96.1924C78.0625 96.3434 78.3073 96.4919 78.5938 96.6377C78.8854 96.7783 79.2214 96.932 79.6016 97.0986C79.9922 97.3018 80.3594 97.5153 80.7031 97.7393C81.0521 97.9632 81.3568 98.2106 81.6172 98.4814C81.8828 98.7523 82.0911 99.0544 82.2422 99.3877C82.3984 99.7158 82.4766 100.091 82.4766 100.513C82.4766 101.08 82.362 101.56 82.1328 101.95C81.9036 102.341 81.5938 102.659 81.2031 102.903C80.8177 103.148 80.3724 103.325 79.8672 103.435C79.362 103.544 78.8281 103.599 78.2656 103.599C78.0781 103.599 77.8464 103.583 77.5703 103.552C77.2995 103.526 77.0208 103.484 76.7344 103.427C76.4479 103.375 76.1771 103.31 75.9219 103.231C75.6667 103.153 75.4609 103.065 75.3047 102.966ZM90.4766 103.411H88.7188V102.161H88.6875C88.1354 103.119 87.3255 103.599 86.2578 103.599C85.4714 103.599 84.8542 103.385 84.4062 102.958C83.9635 102.531 83.7422 101.966 83.7422 101.263C83.7422 99.7523 84.612 98.8721 86.3516 98.6221L88.7266 98.2861C88.7266 97.1455 88.1849 96.5752 87.1016 96.5752C86.1484 96.5752 85.2891 96.9033 84.5234 97.5596V95.9736C85.3672 95.4736 86.3411 95.2236 87.4453 95.2236C89.4661 95.2236 90.4766 96.2184 90.4766 98.208V103.411ZM88.7266 99.4814L87.0469 99.7158C86.526 99.7835 86.1328 99.9111 85.8672 100.099C85.6068 100.281 85.4766 100.604 85.4766 101.067C85.4766 101.406 85.5964 101.685 85.8359 101.903C86.0807 102.117 86.4062 102.224 86.8125 102.224C87.3646 102.224 87.8203 102.031 88.1797 101.646C88.5443 101.255 88.7266 100.765 88.7266 100.177V99.4814ZM96.9141 103.325C96.5599 103.502 96.0938 103.591 95.5156 103.591C93.9635 103.591 93.1875 102.846 93.1875 101.356V96.833H91.8516V95.4111H93.1875V93.5596L95 93.0439V95.4111H96.9141V96.833H95V100.833C95 101.307 95.0859 101.646 95.2578 101.849C95.4297 102.052 95.7161 102.153 96.1172 102.153C96.4245 102.153 96.6901 102.065 96.9141 101.888V103.325ZM99.3906 93.7314C99.0938 93.7314 98.8385 93.6351 98.625 93.4424C98.4167 93.2497 98.3125 93.0049 98.3125 92.708C98.3125 92.4111 98.4167 92.1637 98.625 91.9658C98.8385 91.7679 99.0938 91.6689 99.3906 91.6689C99.6979 91.6689 99.9583 91.7679 100.172 91.9658C100.385 92.1637 100.492 92.4111 100.492 92.708C100.492 92.9893 100.385 93.2314 100.172 93.4346C99.9583 93.6325 99.6979 93.7314 99.3906 93.7314ZM100.289 103.411H98.4766V95.4111H100.289V103.411ZM102.164 103.161V101.481C102.841 101.997 103.589 102.255 104.406 102.255C105.5 102.255 106.047 101.932 106.047 101.286C106.047 101.104 106 100.95 105.906 100.825C105.812 100.695 105.685 100.58 105.523 100.481C105.367 100.382 105.18 100.294 104.961 100.216C104.747 100.138 104.508 100.049 104.242 99.9502C103.914 99.82 103.617 99.682 103.352 99.5361C103.091 99.3903 102.872 99.2262 102.695 99.0439C102.523 98.8564 102.393 98.6455 102.305 98.4111C102.216 98.1768 102.172 97.9033 102.172 97.5908C102.172 97.2054 102.263 96.8669 102.445 96.5752C102.628 96.2783 102.872 96.0309 103.18 95.833C103.487 95.6299 103.836 95.4788 104.227 95.3799C104.617 95.2757 105.021 95.2236 105.438 95.2236C106.177 95.2236 106.839 95.3356 107.422 95.5596V97.1455C106.859 96.7601 106.214 96.5674 105.484 96.5674C105.255 96.5674 105.047 96.5908 104.859 96.6377C104.677 96.6846 104.521 96.7497 104.391 96.833C104.26 96.9163 104.159 97.0179 104.086 97.1377C104.013 97.2523 103.977 97.3799 103.977 97.5205C103.977 97.6924 104.013 97.8382 104.086 97.958C104.159 98.0778 104.266 98.1846 104.406 98.2783C104.552 98.3669 104.724 98.4502 104.922 98.5283C105.125 98.6012 105.357 98.682 105.617 98.7705C105.961 98.9111 106.268 99.0544 106.539 99.2002C106.815 99.346 107.049 99.5127 107.242 99.7002C107.435 99.8825 107.583 100.096 107.688 100.341C107.792 100.58 107.844 100.867 107.844 101.2C107.844 101.606 107.75 101.961 107.562 102.263C107.375 102.565 107.125 102.815 106.812 103.013C106.5 103.211 106.138 103.356 105.727 103.45C105.32 103.549 104.891 103.599 104.438 103.599C103.562 103.599 102.805 103.453 102.164 103.161ZM114.094 93.0439C113.849 92.9033 113.57 92.833 113.258 92.833C112.378 92.833 111.938 93.3304 111.938 94.3252V95.4111H113.797V96.833H111.945V103.411H110.133V96.833H108.766V95.4111H110.133V94.1143C110.133 93.2705 110.409 92.6064 110.961 92.1221C111.513 91.6325 112.203 91.3877 113.031 91.3877C113.479 91.3877 113.833 91.4372 114.094 91.5361V93.0439ZM121.227 103.411H119.469V102.161H119.438C118.885 103.119 118.076 103.599 117.008 103.599C116.221 103.599 115.604 103.385 115.156 102.958C114.714 102.531 114.492 101.966 114.492 101.263C114.492 99.7523 115.362 98.8721 117.102 98.6221L119.477 98.2861C119.477 97.1455 118.935 96.5752 117.852 96.5752C116.898 96.5752 116.039 96.9033 115.273 97.5596V95.9736C116.117 95.4736 117.091 95.2236 118.195 95.2236C120.216 95.2236 121.227 96.2184 121.227 98.208V103.411ZM119.477 99.4814L117.797 99.7158C117.276 99.7835 116.883 99.9111 116.617 100.099C116.357 100.281 116.227 100.604 116.227 101.067C116.227 101.406 116.346 101.685 116.586 101.903C116.831 102.117 117.156 102.224 117.562 102.224C118.115 102.224 118.57 102.031 118.93 101.646C119.294 101.255 119.477 100.765 119.477 100.177V99.4814ZM129.172 103.044C128.531 103.414 127.773 103.599 126.898 103.599C125.711 103.599 124.753 103.229 124.023 102.489C123.294 101.744 122.93 100.781 122.93 99.5986C122.93 98.2809 123.32 97.2236 124.102 96.4268C124.888 95.6247 125.938 95.2236 127.25 95.2236C127.979 95.2236 128.622 95.3512 129.18 95.6064V97.2939C128.622 96.8773 128.029 96.6689 127.398 96.6689C126.633 96.6689 126.005 96.9294 125.516 97.4502C125.026 97.9658 124.781 98.6429 124.781 99.4814C124.781 100.31 125.01 100.963 125.469 101.442C125.932 101.922 126.552 102.161 127.328 102.161C127.979 102.161 128.594 101.929 129.172 101.466V103.044ZM135.195 103.325C134.841 103.502 134.375 103.591 133.797 103.591C132.245 103.591 131.469 102.846 131.469 101.356V96.833H130.133V95.4111H131.469V93.5596L133.281 93.0439V95.4111H135.195V96.833H133.281V100.833C133.281 101.307 133.367 101.646 133.539 101.849C133.711 102.052 133.997 102.153 134.398 102.153C134.706 102.153 134.971 102.065 135.195 101.888V103.325ZM137.672 93.7314C137.375 93.7314 137.12 93.6351 136.906 93.4424C136.698 93.2497 136.594 93.0049 136.594 92.708C136.594 92.4111 136.698 92.1637 136.906 91.9658C137.12 91.7679 137.375 91.6689 137.672 91.6689C137.979 91.6689 138.24 91.7679 138.453 91.9658C138.667 92.1637 138.773 92.4111 138.773 92.708C138.773 92.9893 138.667 93.2314 138.453 93.4346C138.24 93.6325 137.979 93.7314 137.672 93.7314ZM138.57 103.411H136.758V95.4111H138.57V103.411ZM144.492 103.599C143.258 103.599 142.271 103.226 141.531 102.481C140.797 101.731 140.43 100.739 140.43 99.5049C140.43 98.1611 140.812 97.1117 141.578 96.3564C142.349 95.6012 143.385 95.2236 144.688 95.2236C145.938 95.2236 146.911 95.5908 147.609 96.3252C148.307 97.0596 148.656 98.0778 148.656 99.3799C148.656 100.656 148.279 101.679 147.523 102.45C146.773 103.216 145.763 103.599 144.492 103.599ZM144.578 96.6689C143.87 96.6689 143.31 96.9163 142.898 97.4111C142.487 97.9059 142.281 98.5882 142.281 99.458C142.281 100.297 142.49 100.958 142.906 101.442C143.323 101.922 143.88 102.161 144.578 102.161C145.292 102.161 145.839 101.924 146.219 101.45C146.604 100.976 146.797 100.302 146.797 99.4268C146.797 98.5465 146.604 97.8669 146.219 97.3877C145.839 96.9085 145.292 96.6689 144.578 96.6689ZM157.633 103.411H155.82V98.9033C155.82 97.4085 155.292 96.6611 154.234 96.6611C153.682 96.6611 153.227 96.8695 152.867 97.2861C152.508 97.6976 152.328 98.2184 152.328 98.8486V103.411H150.508V95.4111H152.328V96.7393H152.359C152.958 95.7288 153.823 95.2236 154.953 95.2236C155.823 95.2236 156.487 95.5075 156.945 96.0752C157.404 96.6377 157.633 97.4528 157.633 98.5205V103.411Z" fill="black"/>
</svg>
