<svg width="213" height="52" viewBox="0 0 213 52" fill="none" xmlns="http://www.w3.org/2000/svg">
<g clip-path="url(#clip0_0_588)">
<path d="M64.9766 35.2554H79.9517V30.7448H70.2991V13.7549H64.9766V35.2554Z" fill="#340E0E"/>
<path d="M88.8265 32.2485C86.6914 32.2485 85.5788 30.3842 85.5788 27.5876C85.5788 24.791 86.6914 22.8966 88.8265 22.8966C90.9615 22.8966 92.1042 24.791 92.1042 27.5876C92.1042 30.3842 90.9615 32.2485 88.8265 32.2485ZM88.8565 35.7367C93.8182 35.7367 97.0658 32.2185 97.0658 27.5876C97.0658 22.9567 93.8182 19.4385 88.8565 19.4385C83.9249 19.4385 80.6172 22.9567 80.6172 27.5876C80.6172 32.2185 83.9249 35.7367 88.8565 35.7367Z" fill="#340E0E"/>
<path d="M105.653 40.5779C107.938 40.5779 109.953 40.0667 111.306 38.8639C112.539 37.7513 113.351 36.0673 113.351 33.7519V19.8593H108.66V21.5131H108.6C107.698 20.2201 106.315 19.4082 104.27 19.4082C100.451 19.4082 97.8047 22.5957 97.8047 27.1063C97.8047 31.8274 101.022 34.4134 104.48 34.4134C106.345 34.4134 107.517 33.6617 108.42 32.6393H108.54V34.1729C108.54 36.0372 107.668 37.1198 105.593 37.1198C103.969 37.1198 103.157 36.4282 102.887 35.6163H98.1355C98.6166 38.8338 101.413 40.5779 105.653 40.5779ZM105.623 30.7749C103.789 30.7749 102.586 29.2714 102.586 26.9559C102.586 24.6104 103.789 23.1069 105.623 23.1069C107.668 23.1069 108.75 24.851 108.75 26.9258C108.75 29.0909 107.758 30.7749 105.623 30.7749Z" fill="#340E0E"/>
<path d="M122.994 32.2485C120.859 32.2485 119.747 30.3842 119.747 27.5876C119.747 24.791 120.859 22.8966 122.994 22.8966C125.129 22.8966 126.272 24.791 126.272 27.5876C126.272 30.3842 125.129 32.2485 122.994 32.2485ZM123.025 35.7367C127.986 35.7367 131.234 32.2185 131.234 27.5876C131.234 22.9567 127.986 19.4385 123.025 19.4385C118.093 19.4385 114.785 22.9567 114.785 27.5876C114.785 32.2185 118.093 35.7367 123.025 35.7367Z" fill="#340E0E"/>
<path d="M132.668 35.2554H137.569V19.8592H132.668V35.2554ZM132.668 17.7242H137.569V13.7549H132.668V17.7242Z" fill="#340E0E"/>
<path d="M139.695 40.3373H144.597V33.6617H144.657C145.619 34.9547 147.033 35.7365 149.017 35.7365C153.047 35.7365 155.723 32.549 155.723 27.5573C155.723 22.9265 153.227 19.4082 149.137 19.4082C147.033 19.4082 145.529 20.3404 144.477 21.7236H144.386V19.8593H139.695V40.3373ZM147.754 31.9476C145.649 31.9476 144.446 30.2336 144.446 27.7378C144.446 25.2419 145.529 23.3475 147.664 23.3475C149.769 23.3475 150.761 25.0915 150.761 27.7378C150.761 30.3539 149.619 31.9476 147.754 31.9476Z" fill="#340E0E"/>
<path d="M163.702 35.7365C167.732 35.7365 170.709 33.9924 170.709 30.6245C170.709 26.6853 167.521 25.9937 164.815 25.5426C162.86 25.1818 161.116 25.0314 161.116 23.9489C161.116 22.9866 162.049 22.5355 163.251 22.5355C164.605 22.5355 165.537 22.9565 165.717 24.3398H170.228C169.987 21.3027 167.642 19.4082 163.281 19.4082C159.643 19.4082 156.636 21.0922 156.636 24.3398C156.636 27.9483 159.493 28.6699 162.169 29.121C164.214 29.4819 166.078 29.6322 166.078 31.0154C166.078 32.0078 165.146 32.5491 163.672 32.5491C162.049 32.5491 161.026 31.7973 160.846 30.2637H156.215C156.365 33.6617 159.192 35.7365 163.702 35.7365Z" fill="#340E0E"/>
<path d="M177.366 35.7066C179.501 35.7066 180.854 34.8646 181.967 33.3611H182.057V35.2555H186.748V19.8594H181.846V28.4596C181.846 30.2939 180.824 31.5568 179.14 31.5568C177.576 31.5568 176.825 30.6246 176.825 28.9407V19.8594H171.953V29.9631C171.953 33.3911 173.818 35.7066 177.366 35.7066Z" fill="#340E0E"/>
<path d="M188.883 35.2554H193.784V26.6251C193.784 24.7908 194.686 23.4978 196.22 23.4978C197.693 23.4978 198.385 24.4601 198.385 26.1139V35.2554H203.287V26.6251C203.287 24.7908 204.159 23.4978 205.722 23.4978C207.196 23.4978 207.887 24.4601 207.887 26.1139V35.2554H212.789V25.2419C212.789 21.7838 211.045 19.4082 207.557 19.4082C205.572 19.4082 203.918 20.2502 202.715 22.1146H202.655C201.873 20.4607 200.34 19.4082 198.325 19.4082C196.1 19.4082 194.626 20.4607 193.664 22.0544H193.574V19.8593H188.883V35.2554Z" fill="#340E0E"/>
<path fill-rule="evenodd" clip-rule="evenodd" d="M25.9143 50.2905C39.7539 50.2905 50.9731 39.0712 50.9731 25.2316C50.9731 11.3921 39.7539 0.172852 25.9143 0.172852C12.0747 0.172852 0.855469 11.3921 0.855469 25.2316C0.855469 39.0712 12.0747 50.2905 25.9143 50.2905ZM33.7318 11.8463C34.1123 10.4946 32.8006 9.69536 31.6027 10.5488L14.8798 22.4621C13.5806 23.3877 13.785 25.2316 15.1868 25.2316H19.5903V25.1976H28.1727L21.1797 27.665L18.0968 38.6171C17.7163 39.9687 19.0279 40.768 20.226 39.9145L36.9488 28.0013C38.248 27.0757 38.0435 25.2316 36.6419 25.2316H29.9639L33.7318 11.8463Z" fill="#F15757"/>
</g>
<defs>
<clipPath id="clip0_0_588">
<rect width="213" height="51.3706" fill="white"/>
</clipPath>
</defs>
</svg>
