<svg width="17" height="17" viewBox="0 0 17 17" fill="none" xmlns="http://www.w3.org/2000/svg">
<path fill-rule="evenodd" clip-rule="evenodd" d="M4.5154 1.06224C2.60827 1.06224 1.06224 2.60827 1.06224 4.5154V12.484C1.06224 14.3911 2.60827 15.9371 4.5154 15.9371H12.484C14.3911 15.9371 15.9371 14.3911 15.9371 12.484V4.5154C15.9371 2.60827 14.3911 1.06224 12.484 1.06224H4.5154ZM0 4.5154C0 2.02161 2.02161 0 4.5154 0H12.484C14.9778 0 16.9994 2.02161 16.9994 4.5154V12.484C16.9994 14.9778 14.9778 16.9994 12.484 16.9994H4.5154C2.02161 16.9994 0 14.9778 0 12.484V4.5154ZM8.92406 5.83748C8.37138 5.75553 7.80694 5.84993 7.31101 6.10725C6.81507 6.36458 6.41291 6.77174 6.16172 7.2708C5.91052 7.76987 5.82309 8.33544 5.91185 8.88706C6.00061 9.43868 6.26106 9.94827 6.65613 10.3433C7.0512 10.7384 7.56079 10.9989 8.11241 11.0876C8.66404 11.1764 9.2296 11.089 9.72867 10.8378C10.2277 10.5866 10.6349 10.1844 10.8922 9.68847C11.1495 9.19254 11.2439 8.62809 11.162 8.07542C11.0784 7.51167 10.8157 6.98975 10.4127 6.58676C10.0097 6.18377 9.48781 5.92108 8.92406 5.83748ZM6.82177 5.16439C7.51602 4.80415 8.30618 4.672 9.07987 4.78673C9.86906 4.90376 10.5997 5.2715 11.1638 5.83564C11.728 6.39979 12.0957 7.13041 12.2127 7.9196C12.3275 8.69329 12.1953 9.48345 11.8351 10.1777C11.4749 10.872 10.9049 11.4349 10.2062 11.7866C9.5076 12.1382 8.71587 12.2606 7.94366 12.1364C7.17144 12.0121 6.45807 11.6475 5.90501 11.0945C5.35195 10.5414 4.98736 9.82803 4.8631 9.05582C4.73884 8.2836 4.86124 7.49187 5.21289 6.79323C5.56453 6.09459 6.12752 5.52462 6.82177 5.16439ZM12.8823 3.58585C12.5889 3.58585 12.3511 3.82364 12.3511 4.11697C12.3511 4.4103 12.5889 4.64809 12.8823 4.64809H12.8903C13.1836 4.64809 13.4214 4.4103 13.4214 4.11697C13.4214 3.82364 13.1836 3.58585 12.8903 3.58585H12.8823Z" fill="black"/>
</svg>
