<svg width="213" height="52" viewBox="0 0 213 52" fill="none" xmlns="http://www.w3.org/2000/svg">
<g clip-path="url(#clip0_0_599)">
<path d="M64.2461 36.7407H79.2212V32.2301H69.5686V15.2402H64.2461V36.7407Z" fill="#2F234F"/>
<path d="M88.096 33.7329C85.961 33.7329 84.8484 31.8685 84.8484 29.072C84.8484 26.2754 85.961 24.381 88.096 24.381C90.231 24.381 91.3737 26.2754 91.3737 29.072C91.3737 31.8685 90.231 33.7329 88.096 33.7329ZM88.1261 37.2211C93.0877 37.2211 96.3353 33.7029 96.3353 29.072C96.3353 24.4411 93.0877 20.9229 88.1261 20.9229C83.1945 20.9229 79.8867 24.4411 79.8867 29.072C79.8867 33.7029 83.1945 37.2211 88.1261 37.2211Z" fill="#2F234F"/>
<path d="M104.923 42.0623C107.208 42.0623 109.223 41.5511 110.576 40.3482C111.809 39.2356 112.621 37.5517 112.621 35.2362V21.3436H107.93V22.9975H107.87C106.967 21.7045 105.584 20.8926 103.539 20.8926C99.7204 20.8926 97.0742 24.0801 97.0742 28.5906C97.0742 33.3117 100.292 35.8978 103.75 35.8978C105.614 35.8978 106.787 35.146 107.689 34.1236H107.809V35.6572C107.809 37.5216 106.937 38.6042 104.863 38.6042C103.239 38.6042 102.427 37.9125 102.156 37.1006H97.405C97.8861 40.3182 100.683 42.0623 104.923 42.0623ZM104.893 32.2593C103.058 32.2593 101.855 30.7557 101.855 28.4403C101.855 26.0948 103.058 24.5913 104.893 24.5913C106.937 24.5913 108.02 26.3354 108.02 28.4102C108.02 30.5753 107.028 32.2593 104.893 32.2593Z" fill="#2F234F"/>
<path d="M122.268 33.7329C120.133 33.7329 119.02 31.8685 119.02 29.072C119.02 26.2754 120.133 24.381 122.268 24.381C124.403 24.381 125.545 26.2754 125.545 29.072C125.545 31.8685 124.403 33.7329 122.268 33.7329ZM122.298 37.2211C127.259 37.2211 130.507 33.7029 130.507 29.072C130.507 24.4411 127.259 20.9229 122.298 20.9229C117.366 20.9229 114.059 24.4411 114.059 29.072C114.059 33.7029 117.366 37.2211 122.298 37.2211Z" fill="#2F234F"/>
<path d="M131.938 36.7407H136.839V21.3446H131.938V36.7407ZM131.938 19.2096H136.839V15.2402H131.938V19.2096Z" fill="#2F234F"/>
<path d="M138.965 41.8217H143.866V35.146H143.926C144.889 36.4391 146.302 37.2209 148.287 37.2209C152.316 37.2209 154.992 34.0334 154.992 29.0417C154.992 24.4108 152.497 20.8926 148.407 20.8926C146.302 20.8926 144.799 21.8248 143.746 23.208H143.656V21.3436H138.965V41.8217ZM147.024 33.432C144.919 33.432 143.716 31.718 143.716 29.2221C143.716 26.7263 144.799 24.8318 146.934 24.8318C149.038 24.8318 150.031 26.5759 150.031 29.2221C150.031 31.8383 148.888 33.432 147.024 33.432Z" fill="#2F234F"/>
<path d="M162.972 37.2209C167.001 37.2209 169.978 35.4768 169.978 32.1089C169.978 28.1697 166.791 27.478 164.085 27.027C162.13 26.6661 160.386 26.5158 160.386 25.4332C160.386 24.471 161.318 24.0199 162.521 24.0199C163.874 24.0199 164.806 24.4409 164.987 25.8242H169.497C169.257 22.787 166.911 20.8926 162.551 20.8926C158.912 20.8926 155.905 22.5765 155.905 25.8242C155.905 29.4326 158.762 30.1543 161.438 30.6054C163.483 30.9662 165.348 31.1166 165.348 32.4998C165.348 33.4922 164.415 34.0334 162.942 34.0334C161.318 34.0334 160.296 33.2817 160.115 31.7481H155.484C155.635 35.146 158.461 37.2209 162.972 37.2209Z" fill="#2F234F"/>
<path d="M176.635 37.191C178.77 37.191 180.124 36.349 181.236 34.8454H181.326V36.7399H186.017V21.3438H181.116V29.9439C181.116 31.7782 180.093 33.0412 178.41 33.0412C176.846 33.0412 176.094 32.109 176.094 30.4251V21.3438H171.223V31.4475C171.223 34.8755 173.087 37.191 176.635 37.191Z" fill="#2F234F"/>
<path d="M188.152 36.7398H193.054V28.1095C193.054 26.2752 193.956 24.9822 195.49 24.9822C196.963 24.9822 197.655 25.9444 197.655 27.5983V36.7398H202.556V28.1095C202.556 26.2752 203.428 24.9822 204.992 24.9822C206.465 24.9822 207.157 25.9444 207.157 27.5983V36.7398H212.058V26.7263C212.058 23.2682 210.314 20.8926 206.826 20.8926C204.842 20.8926 203.188 21.7346 201.985 23.5989H201.925C201.143 21.945 199.609 20.8926 197.595 20.8926C195.369 20.8926 193.896 21.9451 192.934 23.5388H192.843V21.3436H188.152V36.7398Z" fill="#2F234F"/>
<path fill-rule="evenodd" clip-rule="evenodd" d="M25.1877 50.5229C39.0274 50.5229 50.2465 39.3037 50.2465 25.464C50.2465 11.6245 39.0274 0.405273 25.1877 0.405273C11.3481 0.405273 0.128906 11.6245 0.128906 25.464C0.128906 39.3037 11.3481 50.5229 25.1877 50.5229ZM29.0555 19.7664C31.1915 17.6303 31.1915 14.167 29.0555 12.0309C26.9194 9.89477 23.4561 9.89477 21.32 12.0309C19.184 14.167 19.184 17.6303 21.32 19.7664L25.1877 23.6341L29.0555 19.7664ZM30.8854 29.3319C33.0216 31.468 36.4848 31.468 38.621 29.3319C40.757 27.1957 40.757 23.7325 38.621 21.5963C36.4848 19.4603 33.0216 19.4603 30.8854 21.5963L27.0177 25.4642L30.8854 29.3319ZM29.0555 38.8973C31.1915 36.7612 31.1915 33.2979 29.0555 31.1618L25.1877 27.2941L21.32 31.1618C19.184 33.2979 19.184 36.7612 21.32 38.8973C23.4561 41.0335 26.9194 41.0335 29.0555 38.8973ZM11.7545 29.3319C9.61842 27.1957 9.61842 23.7325 11.7545 21.5963C13.8907 19.4603 17.3539 19.4603 19.4901 21.5963L23.3578 25.4642L19.4901 29.3319C17.3539 31.468 13.8907 31.468 11.7545 29.3319Z" fill="#7F57F1"/>
</g>
<defs>
<clipPath id="clip0_0_599">
<rect width="213" height="51.3706" fill="white"/>
</clipPath>
</defs>
</svg>
