<svg width="213" height="53" viewBox="0 0 213 53" fill="none" xmlns="http://www.w3.org/2000/svg">
<g clip-path="url(#clip0_0_577)">
<path d="M64.1016 36.9959H79.1653V32.4586H69.4556V15.3682H64.1016V36.9959Z" fill="#1A1414"/>
<path d="M88.0899 33.9708C85.9422 33.9708 84.823 32.0954 84.823 29.2823C84.823 26.4692 85.9422 24.5635 88.0899 24.5635C90.2375 24.5635 91.387 26.4692 91.387 29.2823C91.387 32.0954 90.2375 33.9708 88.0899 33.9708ZM88.1201 37.4797C93.1111 37.4797 96.378 33.9406 96.378 29.2823C96.378 24.624 93.1111 21.085 88.1201 21.085C83.1594 21.085 79.832 24.624 79.832 29.2823C79.832 33.9406 83.1594 37.4797 88.1201 37.4797Z" fill="#1A1414"/>
<path d="M105.016 42.3496C107.315 42.3496 109.341 41.8354 110.703 40.6255C111.943 39.5063 112.76 37.8124 112.76 35.4832V21.5084H108.041V23.1721H107.98C107.073 21.8714 105.681 21.0547 103.625 21.0547C99.783 21.0547 97.1211 24.261 97.1211 28.7983C97.1211 33.5473 100.358 36.1487 103.836 36.1487C105.712 36.1487 106.891 35.3925 107.799 34.364H107.92V35.9067C107.92 37.7821 107.043 38.8711 104.955 38.8711C103.322 38.8711 102.505 38.1753 102.233 37.3586H97.4538C97.9378 40.5952 100.751 42.3496 105.016 42.3496ZM104.986 32.4886C103.141 32.4886 101.931 30.9762 101.931 28.6471C101.931 26.2877 103.141 24.7753 104.986 24.7753C107.043 24.7753 108.132 26.5297 108.132 28.6168C108.132 30.7947 107.133 32.4886 104.986 32.4886Z" fill="#1A1414"/>
<path d="M122.465 33.9708C120.317 33.9708 119.198 32.0954 119.198 29.2823C119.198 26.4692 120.317 24.5635 122.465 24.5635C124.613 24.5635 125.762 26.4692 125.762 29.2823C125.762 32.0954 124.613 33.9708 122.465 33.9708ZM122.495 37.4797C127.486 37.4797 130.753 33.9406 130.753 29.2823C130.753 24.624 127.486 21.085 122.495 21.085C117.534 21.085 114.207 24.624 114.207 29.2823C114.207 33.9406 117.534 37.4797 122.495 37.4797Z" fill="#1A1414"/>
<path d="M132.191 36.9959H137.122V21.5086H132.191V36.9959ZM132.191 19.361H137.122V15.3682H132.191V19.361Z" fill="#1A1414"/>
<path d="M139.262 42.1077H144.192V35.3925H144.253C145.221 36.6932 146.642 37.4796 148.639 37.4796C152.692 37.4796 155.384 34.2733 155.384 29.252C155.384 24.5938 152.874 21.0547 148.76 21.0547C146.642 21.0547 145.13 21.9924 144.071 23.3838H143.98V21.5084H139.262V42.1077ZM147.368 33.6683C145.251 33.6683 144.041 31.9442 144.041 29.4335C144.041 26.9229 145.13 25.0172 147.278 25.0172C149.395 25.0172 150.393 26.7717 150.393 29.4335C150.393 32.0651 149.244 33.6683 147.368 33.6683Z" fill="#1A1414"/>
<path d="M163.411 37.4796C167.464 37.4796 170.459 35.7252 170.459 32.3374C170.459 28.3748 167.252 27.6791 164.53 27.2254C162.564 26.8624 160.809 26.7112 160.809 25.6222C160.809 24.6543 161.747 24.2005 162.957 24.2005C164.318 24.2005 165.256 24.624 165.437 26.0154H169.975C169.733 22.9603 167.373 21.0547 162.987 21.0547C159.327 21.0547 156.302 22.7486 156.302 26.0154C156.302 29.6453 159.176 30.3712 161.868 30.825C163.925 31.1879 165.8 31.3392 165.8 32.7306C165.8 33.7288 164.863 34.2733 163.381 34.2733C161.747 34.2733 160.719 33.5171 160.537 31.9744H155.879C156.03 35.3925 158.874 37.4796 163.411 37.4796Z" fill="#1A1414"/>
<path d="M177.156 37.4488C179.303 37.4488 180.665 36.6018 181.784 35.0894H181.874V36.9951H186.593V21.5078H181.663V30.1589C181.663 32.004 180.634 33.2745 178.94 33.2745C177.367 33.2745 176.611 32.3368 176.611 30.6429V21.5078H171.711V31.6713C171.711 35.1196 173.586 37.4488 177.156 37.4488Z" fill="#1A1414"/>
<path d="M188.738 36.9957H193.669V28.3143C193.669 26.4692 194.576 25.1685 196.119 25.1685C197.601 25.1685 198.297 26.1364 198.297 27.8001V36.9957H203.227V28.3143C203.227 26.4692 204.105 25.1685 205.677 25.1685C207.16 25.1685 207.855 26.1364 207.855 27.8001V36.9957H212.786V26.9229C212.786 23.4443 211.031 21.0547 207.523 21.0547C205.526 21.0547 203.863 21.9016 202.653 23.7771H202.592C201.806 22.1134 200.263 21.0547 198.236 21.0547C195.998 21.0547 194.516 22.1134 193.548 23.7166H193.457V21.5084H188.738V36.9957Z" fill="#1A1414"/>
<path fill-rule="evenodd" clip-rule="evenodd" d="M26.0675 1.21191C40.2614 1.21191 51.7678 12.7183 51.7678 26.9122C51.7678 41.1061 40.2614 52.6126 26.0675 52.6126C11.8736 52.6126 0.367188 41.1061 0.367188 26.9122C0.367188 12.7183 11.8736 1.21191 26.0675 1.21191ZM50.7813 26.9122C50.7813 13.2631 39.7165 2.19829 26.0675 2.19829C24.9665 2.19829 23.8825 2.27029 22.8195 2.40982C23.5062 2.34978 24.2012 2.31912 24.9035 2.31912C37.9459 2.31912 48.5189 12.8921 48.5189 25.9345C48.5189 38.9768 37.9459 49.5498 24.9035 49.5498C12.5558 49.5498 2.42156 40.0733 1.37694 27.9964C1.94441 41.1424 12.7816 51.6261 26.0675 51.6261C39.7165 51.6261 50.7813 40.5613 50.7813 26.9122ZM47.5324 25.9345C47.5324 13.4368 37.4011 3.30552 24.9035 3.30552C23.8888 3.30552 22.8895 3.37231 21.9101 3.50174C22.5132 3.451 23.1233 3.42511 23.7395 3.42511C35.6305 3.42511 45.2699 13.0646 45.2699 24.9555C45.2699 36.8464 35.6305 46.4858 23.7395 46.4858C12.4964 46.4858 3.26603 37.8679 2.29383 26.8774C2.78813 38.9377 12.7218 48.5634 24.9035 48.5634C37.4011 48.5634 47.5324 38.432 47.5324 25.9345ZM23.7395 4.4115C35.0856 4.4115 44.2836 13.6094 44.2836 24.9555C44.2836 36.3015 35.0856 45.4994 23.7395 45.4994C12.6563 45.4994 3.6229 36.7228 3.21033 25.7404C4.10108 35.6531 12.4311 43.4218 22.5757 43.4218C33.3143 43.4218 42.0198 34.7164 42.0198 23.9777C42.0198 13.2389 33.3143 4.53356 22.5757 4.53356C22.0202 4.53356 21.47 4.55686 20.9263 4.60252C21.8461 4.47657 22.7852 4.4115 23.7395 4.4115ZM41.0334 23.9777C41.0334 13.7838 32.7696 5.51995 22.5757 5.51995C21.7144 5.51995 20.8668 5.57893 20.037 5.69309C20.4901 5.65763 20.9481 5.63957 21.4104 5.63957C30.9977 5.63957 38.7696 13.4115 38.7696 22.9988C38.7696 32.5859 30.9977 40.3579 21.4104 40.3579C12.3867 40.3579 4.97115 33.4727 4.13061 24.6692C4.49426 34.5427 12.6132 42.4354 22.5757 42.4354C32.7696 42.4354 41.0334 34.1717 41.0334 23.9777ZM21.4104 6.62595C30.4528 6.62595 37.7832 13.9563 37.7832 22.9988C37.7832 32.0412 30.4528 39.3715 21.4104 39.3715C12.5461 39.3715 5.32713 32.3271 5.04615 23.5311C5.80504 31.2574 12.3208 37.2939 20.2465 37.2939C28.6823 37.2939 35.5207 30.4554 35.5207 22.0197C35.5207 13.584 28.6823 6.74554 20.2465 6.74554C19.8597 6.74554 19.4761 6.75992 19.0965 6.78818C19.8525 6.68125 20.6249 6.62595 21.4104 6.62595ZM34.5343 22.0197C34.5343 14.1288 28.1374 7.73193 20.2465 7.73193C19.5262 7.73193 18.8183 7.78523 18.1267 7.8881C18.4424 7.86549 18.7611 7.85399 19.0826 7.85399C26.3661 7.85399 32.2706 13.7585 32.2706 21.0419C32.2706 28.3255 26.3661 34.2299 19.0826 34.2299C12.2575 34.2299 6.64341 29.0454 5.96366 22.3998C6.16518 30.1151 12.4827 36.3076 20.2465 36.3076C28.1374 36.3076 34.5343 29.9107 34.5343 22.0197ZM19.0826 8.84038C25.8214 8.84038 31.2841 14.3032 31.2841 21.0419C31.2841 27.7808 25.8214 33.2435 19.0826 33.2435C12.4296 33.2435 7.02024 27.9189 6.88363 21.2987C7.49822 26.8491 12.2043 31.166 17.9187 31.166C24.0507 31.166 29.0217 26.195 29.0217 20.063C29.0217 13.931 24.0507 8.95997 17.9187 8.95997C17.6842 8.95997 17.4514 8.96725 17.2205 8.98158C17.8276 8.8886 18.4494 8.84038 19.0826 8.84038ZM28.0353 20.063C28.0353 14.4757 23.506 9.94636 17.9187 9.94636C17.3576 9.94636 16.8072 9.99204 16.2709 10.0799C16.4307 10.0715 16.5916 10.0672 16.7535 10.0672C21.7339 10.0672 25.7715 14.1047 25.7715 19.0852C25.7715 24.0658 21.7339 28.1033 16.7535 28.1033C12.1482 28.1033 8.34921 24.6512 7.80287 20.1936C7.87282 25.7207 12.375 30.1796 17.9187 30.1796C23.506 30.1796 28.0353 25.6503 28.0353 20.063ZM16.7535 11.0536C21.1892 11.0536 24.7851 14.6494 24.7851 19.0852C24.7851 23.521 21.1892 27.1168 16.7535 27.1168C12.3177 27.1168 8.72181 23.521 8.72181 19.0852C8.72181 19.0746 8.72183 19.0639 8.72187 19.0533C9.18369 22.4336 12.0825 25.0381 15.5896 25.0381C19.4179 25.0381 22.5214 21.9346 22.5214 18.1063C22.5214 14.2779 19.4179 11.1744 15.5896 11.1744C15.503 11.1744 15.4168 11.176 15.3309 11.1792C15.7926 11.0966 16.268 11.0536 16.7535 11.0536ZM21.5349 18.1063C21.5349 14.8227 18.8732 12.1608 15.5896 12.1608C12.306 12.1608 9.6441 14.8227 9.6441 18.1063C9.6441 21.3898 12.306 24.0517 15.5896 24.0517C18.8732 24.0517 21.5349 21.3898 21.5349 18.1063Z" fill="#1A1414"/>
</g>
<defs>
<clipPath id="clip0_0_577">
<rect width="213" height="52.9349" fill="white"/>
</clipPath>
</defs>
</svg>
