<svg width="213" height="52" viewBox="0 0 213 52" fill="none" xmlns="http://www.w3.org/2000/svg">
<g clip-path="url(#clip0_0_561)">
<path d="M62.4766 36.7076H77.63V32.1433H67.8624V14.9512H62.4766V36.7076Z" fill="#3C2B1F"/>
<path d="M86.6078 33.6647C84.4474 33.6647 83.3215 31.7781 83.3215 28.9483C83.3215 26.1184 84.4474 24.2014 86.6078 24.2014C88.7682 24.2014 89.9245 26.1184 89.9245 28.9483C89.9245 31.7781 88.7682 33.6647 86.6078 33.6647ZM86.6382 37.1944C91.6589 37.1944 94.9452 33.6343 94.9452 28.9483C94.9452 24.2623 91.6589 20.7021 86.6382 20.7021C81.6479 20.7021 78.3008 24.2623 78.3008 28.9483C78.3008 33.6343 81.6479 37.1944 86.6382 37.1944Z" fill="#3C2B1F"/>
<path d="M103.637 42.0936C105.95 42.0936 107.988 41.5763 109.358 40.3592C110.605 39.2333 111.427 37.5293 111.427 35.1863V21.1283H106.68V22.8019H106.619C105.706 21.4934 104.307 20.6719 102.237 20.6719C98.373 20.6719 95.6953 23.8973 95.6953 28.4616C95.6953 33.2389 98.9512 35.8557 102.45 35.8557C104.337 35.8557 105.524 35.095 106.437 34.0604H106.558V35.6123C106.558 37.4989 105.676 38.5943 103.576 38.5943C101.933 38.5943 101.112 37.8944 100.838 37.0729H96.03C96.5169 40.3287 99.3467 42.0936 103.637 42.0936ZM103.607 32.1739C101.751 32.1739 100.533 30.6524 100.533 28.3094C100.533 25.936 101.751 24.4146 103.607 24.4146C105.676 24.4146 106.771 26.1794 106.771 28.279C106.771 30.4699 105.767 32.1739 103.607 32.1739Z" fill="#3C2B1F"/>
<path d="M121.186 33.6647C119.025 33.6647 117.9 31.7781 117.9 28.9483C117.9 26.1184 119.025 24.2014 121.186 24.2014C123.346 24.2014 124.503 26.1184 124.503 28.9483C124.503 31.7781 123.346 33.6647 121.186 33.6647ZM121.216 37.1944C126.237 37.1944 129.523 33.6343 129.523 28.9483C129.523 24.2623 126.237 20.7021 121.216 20.7021C116.226 20.7021 112.879 24.2623 112.879 28.9483C112.879 33.6343 116.226 37.1944 121.216 37.1944Z" fill="#3C2B1F"/>
<path d="M130.973 36.7076H135.933V21.1282H130.973V36.7076ZM130.973 18.9677H135.933V14.9512H130.973V18.9677Z" fill="#3C2B1F"/>
<path d="M138.082 41.8502H143.042V35.095H143.103C144.076 36.4034 145.507 37.1946 147.515 37.1946C151.592 37.1946 154.3 33.9692 154.3 28.918C154.3 24.232 151.775 20.6719 147.637 20.6719C145.507 20.6719 143.985 21.6152 142.92 23.0149H142.829V21.1283H138.082V41.8502ZM146.237 33.3606C144.107 33.3606 142.89 31.6262 142.89 29.1006C142.89 26.575 143.985 24.658 146.146 24.658C148.276 24.658 149.28 26.4229 149.28 29.1006C149.28 31.7479 148.123 33.3606 146.237 33.3606Z" fill="#3C2B1F"/>
<path d="M162.378 37.1946C166.455 37.1946 169.467 35.4297 169.467 32.0217C169.467 28.0356 166.242 27.3357 163.503 26.8793C161.526 26.5142 159.761 26.362 159.761 25.2666C159.761 24.2929 160.704 23.8364 161.921 23.8364C163.29 23.8364 164.234 24.2624 164.416 25.6622H168.98C168.737 22.5889 166.364 20.6719 161.951 20.6719C158.27 20.6719 155.227 22.3759 155.227 25.6622C155.227 29.3136 158.117 30.0439 160.826 30.5003C162.895 30.8654 164.781 31.0176 164.781 32.4173C164.781 33.4214 163.838 33.9692 162.347 33.9692C160.704 33.9692 159.669 33.2084 159.487 31.6566H154.801C154.953 35.095 157.813 37.1946 162.378 37.1946Z" fill="#3C2B1F"/>
<path d="M176.204 37.1638C178.364 37.1638 179.733 36.3118 180.859 34.7904H180.951V36.7074H185.697V21.1279H180.738V29.8305C180.738 31.6866 179.703 32.9646 177.999 32.9646C176.417 32.9646 175.656 32.0214 175.656 30.3174V21.1279H170.727V31.3519C170.727 34.8208 172.613 37.1638 176.204 37.1638Z" fill="#3C2B1F"/>
<path d="M187.855 36.7077H192.815V27.9747C192.815 26.1186 193.728 24.8102 195.28 24.8102C196.771 24.8102 197.471 25.7839 197.471 27.4574V36.7077H202.431V27.9747C202.431 26.1186 203.313 24.8102 204.895 24.8102C206.386 24.8102 207.086 25.7839 207.086 27.4574V36.7077H212.046V26.575C212.046 23.0757 210.281 20.6719 206.752 20.6719C204.743 20.6719 203.07 21.5239 201.853 23.4104H201.792C201.001 21.7369 199.449 20.6719 197.41 20.6719C195.158 20.6719 193.667 21.7369 192.694 23.3496H192.602V21.1283H187.855V36.7077Z" fill="#3C2B1F"/>
<path d="M32.2161 2.50606L27.2296 1.16992L23.0274 16.8528L19.2336 2.69419L14.247 4.03033L18.346 19.3276L8.13637 9.11809L4.48597 12.7685L15.6846 23.9672L1.73848 20.2303L0.402344 25.2168L15.6402 29.2998C15.4658 28.5474 15.3735 27.7633 15.3735 26.9577C15.3735 21.2554 19.9961 16.6328 25.6984 16.6328C31.4007 16.6328 36.0233 21.2554 36.0233 26.9577C36.0233 27.7581 35.9322 28.5373 35.7599 29.2854L49.6083 32.996L50.9443 28.0095L35.6459 23.9103L49.5929 20.1732L48.2567 15.1867L32.9589 19.2857L43.1685 9.07618L39.518 5.42578L28.4747 16.4691L32.2161 2.50606Z" fill="#F97316"/>
<path d="M35.7482 29.3438C35.3207 31.1512 34.4181 32.775 33.1797 34.0759L43.2122 44.1086L46.8627 40.4582L35.7482 29.3438Z" fill="#F97316"/>
<path d="M33.0745 34.1807C31.8211 35.4608 30.2372 36.4161 28.4609 36.9085L32.1116 50.5329L37.0981 49.1967L33.0745 34.1807Z" fill="#F97316"/>
<path d="M28.275 36.959C27.4509 37.1709 26.5871 37.2835 25.6969 37.2835C24.7433 37.2835 23.8197 37.1541 22.943 36.9121L19.2891 50.5489L24.2755 51.885L28.275 36.959Z" fill="#F97316"/>
<path d="M22.7697 36.8609C21.0205 36.3441 19.4647 35.3766 18.2369 34.0928L8.17969 44.15L11.8301 47.8005L22.7697 36.8609Z" fill="#F97316"/>
<path d="M18.1517 34.0046C16.9449 32.7127 16.0659 31.1106 15.6475 29.3311L1.75391 33.0539L3.09004 38.0403L18.1517 34.0046Z" fill="#F97316"/>
</g>
<defs>
<clipPath id="clip0_0_561">
<rect width="213" height="51.9821" fill="white"/>
</clipPath>
</defs>
</svg>
