<svg width="16" height="17" viewBox="0 0 16 17" fill="none" xmlns="http://www.w3.org/2000/svg">
<path d="M11.2692 16.5V13.5552C11.2981 13.1923 11.2485 12.8276 11.1239 12.4852C10.9992 12.1427 10.8023 11.8305 10.5462 11.5691C12.9615 11.3028 15.5 10.3973 15.5 6.24261C15.4998 5.18022 15.0867 4.15856 14.3462 3.38911C14.6968 2.45963 14.672 1.43225 14.2769 0.520388C14.2769 0.520388 13.3692 0.254061 11.2692 1.64657C9.50616 1.17389 7.64769 1.17389 5.88462 1.64657C3.78462 0.254061 2.87692 0.520388 2.87692 0.520388C2.48183 1.43225 2.45703 2.45963 2.80769 3.38911C2.06164 4.16427 1.64809 5.19516 1.65385 6.26544C1.65385 10.3897 4.19231 11.2952 6.60769 11.592C6.35461 11.8507 6.15943 12.1592 6.03485 12.4974C5.91027 12.8357 5.85908 13.1961 5.88462 13.5552V16.5M5.88462 14.2172C2.03846 15.3586 2.03846 12.3149 0.5 11.9344L5.88462 14.2172Z" stroke="black" stroke-linecap="round" stroke-linejoin="round"/>
</svg>
